<svg width="526" height="404" viewBox="0 0 526 404" fill="none" xmlns="http://www.w3.org/2000/svg">
<g clip-path="url(#clip0_1_6952)">
<path opacity="0.1" d="M241.028 356.737C361.751 356.737 459.616 349.141 459.616 339.771C459.616 330.401 361.751 322.805 241.028 322.805C120.305 322.805 22.4399 330.401 22.4399 339.771C22.4399 349.141 120.305 356.737 241.028 356.737Z" fill="#99338A"/>
<g opacity="0.1">
<path d="M434.63 243.096C433.323 239.132 428.026 237.307 422.8 239.024C422.047 239.27 421.319 239.585 420.625 239.965C420.29 239.873 419.946 239.79 419.596 239.729C419.882 238.588 419.991 237.411 419.92 236.238C421.723 235.032 423.185 233.384 424.167 231.451C425.148 229.518 425.617 227.366 425.526 225.2C427.324 223.991 428.781 222.341 429.759 220.409C430.737 218.476 431.203 216.325 431.112 214.162C432.923 212.968 434.384 211.314 435.345 209.37C437.865 204.383 436.821 198.779 433.01 196.851C429.199 194.923 424.06 197.406 421.54 202.393C420.541 204.318 420.074 206.475 420.188 208.64C418.39 209.849 416.933 211.498 415.955 213.431C414.977 215.363 414.511 217.514 414.602 219.678C412.804 220.887 411.347 222.536 410.369 224.469C409.391 226.402 408.926 228.552 409.016 230.716C407.215 231.923 405.753 233.573 404.771 235.506C403.79 237.44 403.321 239.593 403.41 241.76C401.599 242.953 400.138 244.607 399.177 246.551C398.704 247.488 398.345 248.479 398.108 249.502C397.476 248.579 396.706 247.759 395.824 247.07C395.723 246.285 395.551 245.511 395.31 244.757C393.592 239.528 388.984 236.341 385.023 237.647C381.063 238.952 379.232 244.243 380.95 249.471C381.653 251.713 383.006 253.696 384.838 255.168C384.939 255.953 385.111 256.727 385.352 257.481C386.35 260.515 388.32 262.859 390.573 264.036C390.373 264.691 390.23 265.362 390.146 266.041C388.022 268.084 386.654 270.786 386.268 273.707C384.142 275.75 382.775 278.455 382.39 281.378C381.337 282.388 380.467 283.572 379.818 284.879C377.293 289.866 378.337 295.475 382.148 297.397C385.959 299.32 391.097 296.847 393.623 291.855C394.288 290.554 394.723 289.146 394.909 287.696C397.033 285.654 398.4 282.951 398.787 280.031C400.912 277.987 402.28 275.282 402.665 272.36C404.774 270.313 406.125 267.61 406.496 264.694C408.63 262.652 410.002 259.942 410.385 257.013C411.039 256.393 411.623 255.704 412.128 254.957C414.23 255.388 416.408 255.251 418.439 254.561C419.192 254.316 419.92 254.001 420.614 253.62C422.889 254.22 425.291 254.134 427.517 253.373C432.727 251.672 435.931 247.065 434.63 243.096Z" fill="#3F3D56"/>
<g opacity="0.1">
<path d="M425.409 227.467C424.869 227.998 424.276 228.471 423.639 228.881C423.72 230.348 423.526 231.818 423.068 233.215C423.473 232.656 423.834 232.066 424.148 231.451C424.786 230.202 425.212 228.856 425.409 227.467Z" fill="black"/>
<path d="M430.994 216.429C430.454 216.959 429.861 217.433 429.225 217.843C429.306 219.31 429.112 220.78 428.654 222.177C429.06 221.616 429.421 221.025 429.734 220.408C430.369 219.16 430.795 217.815 430.994 216.429Z" fill="black"/>
<path d="M418.326 212.321C418.279 211.564 418.308 210.805 418.414 210.054C417.415 211.038 416.585 212.179 415.955 213.431C415.645 214.049 415.383 214.69 415.174 215.349C416.025 214.151 417.094 213.123 418.326 212.321Z" fill="black"/>
<path d="M382.874 279.12C383.323 278.494 383.831 277.912 384.391 277.383C384.479 276.685 384.628 275.997 384.839 275.326C384.391 275.927 383.997 276.565 383.661 277.234C383.35 277.841 383.087 278.472 382.874 279.12Z" fill="black"/>
<path d="M386.752 271.46C387.201 270.834 387.709 270.252 388.269 269.722C388.353 269.043 388.496 268.372 388.696 267.717C388.269 268.301 387.89 268.918 387.564 269.563C387.246 270.174 386.975 270.808 386.752 271.46Z" fill="black"/>
<path d="M419.818 238.505C419.281 239.035 418.69 239.508 418.053 239.914C418.124 241.087 418.015 242.264 417.729 243.405C418.076 243.465 418.42 243.544 418.758 243.641C419.452 243.261 420.181 242.946 420.934 242.7C426.17 240.983 431.462 242.808 432.763 246.772C433.086 247.768 433.143 248.832 432.928 249.857C434.651 247.831 435.366 245.363 434.625 243.101C433.319 239.137 428.021 237.312 422.796 239.029C422.043 239.275 421.314 239.59 420.62 239.97C420.286 239.878 419.941 239.795 419.591 239.734C419.689 239.322 419.761 238.916 419.818 238.505Z" fill="black"/>
<path d="M380.961 282.971C380.513 283.572 380.119 284.21 379.783 284.879C379.47 285.498 379.205 286.141 378.991 286.801C379.45 286.172 379.966 285.587 380.534 285.053C380.613 284.348 380.756 283.651 380.961 282.971Z" fill="black"/>
<path d="M412.715 223.359C412.668 222.603 412.697 221.843 412.802 221.092C411.804 222.076 410.973 223.217 410.344 224.47C410.033 225.088 409.772 225.729 409.562 226.387C410.414 225.189 411.483 224.162 412.715 223.359Z" fill="black"/>
<path d="M404.645 268.375C404.544 269.14 404.372 269.894 404.131 270.627C404.533 270.066 404.893 269.474 405.206 268.859C405.543 268.198 405.823 267.51 406.044 266.802C405.623 267.365 405.155 267.891 404.645 268.375Z" fill="black"/>
<path d="M396.889 283.706C396.788 284.471 396.616 285.225 396.375 285.958C396.781 285.398 397.142 284.806 397.455 284.19C397.79 283.528 398.07 282.84 398.293 282.133C397.872 282.697 397.402 283.224 396.889 283.706Z" fill="black"/>
<path d="M400.767 276.036C400.666 276.801 400.494 277.555 400.253 278.288C400.663 277.737 401.031 277.156 401.354 276.55C401.691 275.889 401.971 275.201 402.192 274.493C401.761 275.047 401.285 275.563 400.767 276.036Z" fill="black"/>
<path d="M408.523 260.71C408.422 261.473 408.25 262.225 408.009 262.956C408.412 262.397 408.772 261.808 409.084 261.193C409.425 260.521 409.707 259.821 409.927 259.101C409.508 259.678 409.038 260.216 408.523 260.71Z" fill="black"/>
<path d="M383.131 241.322C387.101 240.022 391.71 243.204 393.417 248.433C393.658 249.189 393.83 249.965 393.932 250.751C394.813 251.44 395.584 252.26 396.215 253.183C396.452 252.158 396.811 251.166 397.285 250.227C397.465 249.877 397.661 249.543 397.861 249.199C397.278 248.391 396.585 247.668 395.804 247.05C395.703 246.265 395.531 245.49 395.29 244.736C393.572 239.508 388.963 236.32 385.003 237.626C382.74 238.366 381.176 240.407 380.57 242.988C381.266 242.222 382.148 241.648 383.131 241.322Z" fill="black"/>
<path d="M401.544 245.435C401.498 244.68 401.529 243.922 401.636 243.173C400.634 244.156 399.802 245.297 399.173 246.551C398.861 247.167 398.6 247.806 398.391 248.464C399.244 247.267 400.314 246.24 401.544 245.435Z" fill="black"/>
<path d="M407.129 234.392C407.084 233.637 407.115 232.879 407.222 232.13C406.219 233.109 405.386 234.249 404.758 235.502C404.448 236.12 404.186 236.761 403.977 237.42C404.828 236.222 405.897 235.194 407.129 234.392Z" fill="black"/>
<path d="M393.011 291.372C392.91 292.139 392.738 292.894 392.497 293.629C393.342 292.458 393.99 291.158 394.415 289.778C393.995 290.349 393.525 290.883 393.011 291.372Z" fill="black"/>
</g>
<path d="M442.252 192.085C444.065 190.894 445.526 189.239 446.485 187.294C449.01 182.307 447.966 176.698 444.155 174.77C440.344 172.842 435.206 175.325 432.681 180.317C431.68 182.247 431.215 184.409 431.333 186.579C429.536 187.788 428.078 189.438 427.1 191.37C426.122 193.303 425.657 195.454 425.748 197.617C423.934 198.808 422.472 200.462 421.515 202.409C421.205 203.019 420.945 203.654 420.738 204.306C422.081 202.362 424.028 200.917 426.277 200.193C426.533 200.985 426.944 201.718 427.486 202.35C428.027 202.983 428.689 203.501 429.432 203.876C430.175 204.251 430.986 204.475 431.816 204.534C432.647 204.594 433.481 204.488 434.27 204.224C435.029 206.459 435.029 208.883 434.27 211.118C434.672 210.564 435.029 209.98 435.34 209.37C436.337 207.445 436.803 205.288 436.687 203.124C438.487 201.917 439.946 200.268 440.924 198.335C441.902 196.402 442.367 194.25 442.273 192.085H442.252Z" fill="#3F3D56"/>
<path d="M503.642 121.322C505.193 120.599 506.691 119.769 508.127 118.839L491.499 106.695L511.043 116.757C514.997 113.617 518.268 109.704 520.656 105.256C523.044 100.808 524.498 95.9204 524.93 90.8913L491.715 91.2306L525.002 85.6679C524.658 80.6338 523.288 75.7232 520.976 71.2378C518.664 66.7523 515.459 62.7867 511.558 59.5845C507.657 56.3823 503.142 54.0112 498.291 52.6167C493.439 51.2222 488.354 50.8339 483.347 51.4756C478.341 52.1172 473.518 53.7753 469.176 56.348C464.833 58.9207 461.063 62.3537 458.096 66.436C455.129 70.5184 453.029 75.1639 451.924 80.0873C450.819 85.0107 450.732 90.1079 451.669 95.066C449.255 96.1882 446.968 97.5671 444.849 99.1789L462.208 123.307L441.367 102.187C436.969 106.504 433.717 111.849 431.906 117.739C430.095 123.628 429.781 129.877 430.994 135.918C424.698 138.855 419.356 143.504 415.578 149.332C411.8 155.161 409.739 161.934 409.629 168.878C409.52 175.822 411.367 182.656 414.96 188.601C418.552 194.545 423.745 199.36 429.945 202.494C436.145 205.628 443.102 206.955 450.021 206.324C456.94 205.693 463.542 203.129 469.072 198.925C474.602 194.721 478.838 189.047 481.295 182.551C483.752 176.055 484.331 168.999 482.966 162.189C490.5 158.684 496.635 152.748 500.385 145.335C504.135 137.923 505.283 129.465 503.642 121.322Z" fill="#99338A"/>
<path opacity="0.1" d="M434.27 111.903C430.508 119.312 429.357 127.774 431.004 135.918C424.708 138.855 419.366 143.504 415.589 149.332C411.811 155.16 409.749 161.934 409.64 168.878C409.53 175.822 411.378 182.656 414.97 188.601C418.563 194.545 423.755 199.359 429.955 202.493C436.155 205.627 443.112 206.955 450.031 206.324C456.95 205.693 463.552 203.129 469.082 198.925C474.612 194.721 478.848 189.047 481.305 182.551C483.762 176.055 484.341 168.999 482.977 162.189C490.244 158.817 436.132 108.196 434.27 111.903Z" fill="black"/>
<path d="M476.002 58.3063C479.039 58.3063 481.5 55.8457 481.5 52.8104C481.5 49.7751 479.039 47.3145 476.002 47.3145C472.966 47.3145 470.504 49.7751 470.504 52.8104C470.504 55.8457 472.966 58.3063 476.002 58.3063Z" fill="#99338A"/>
<path d="M508.117 61.8332C511.153 61.8332 513.615 59.3726 513.615 56.3372C513.615 53.3019 511.153 50.8413 508.117 50.8413C505.08 50.8413 502.619 53.3019 502.619 56.3372C502.619 59.3726 505.08 61.8332 508.117 61.8332Z" fill="#99338A"/>
<path d="M520.502 111.219C523.538 111.219 526 108.759 526 105.723C526 102.688 523.538 100.228 520.502 100.228C517.465 100.228 515.003 102.688 515.003 105.723C515.003 108.759 517.465 111.219 520.502 111.219Z" fill="#99338A"/>
<path d="M503.786 135.882C506.823 135.882 509.284 133.421 509.284 130.386C509.284 127.351 506.823 124.89 503.786 124.89C500.75 124.89 498.288 127.351 498.288 130.386C498.288 133.421 500.75 135.882 503.786 135.882Z" fill="#99338A"/>
<path d="M480.95 187.103C483.986 187.103 486.448 184.643 486.448 181.608C486.448 178.572 483.986 176.112 480.95 176.112C477.913 176.112 475.452 178.572 475.452 181.608C475.452 184.643 477.913 187.103 480.95 187.103Z" fill="#99338A"/>
<path opacity="0.1" d="M480.95 187.103C483.986 187.103 486.448 184.643 486.448 181.608C486.448 178.572 483.986 176.112 480.95 176.112C477.913 176.112 475.452 178.572 475.452 181.608C475.452 184.643 477.913 187.103 480.95 187.103Z" fill="black"/>
<path d="M430.176 129.09C433.212 129.09 435.674 126.63 435.674 123.594C435.674 120.559 433.212 118.098 430.176 118.098C427.139 118.098 424.678 120.559 424.678 123.594C424.678 126.63 427.139 129.09 430.176 129.09Z" fill="#99338A"/>
<path opacity="0.1" d="M430.176 129.09C433.212 129.09 435.674 126.63 435.674 123.594C435.674 120.559 433.212 118.098 430.176 118.098C427.139 118.098 424.678 120.559 424.678 123.594C424.678 126.63 427.139 129.09 430.176 129.09Z" fill="black"/>
<path opacity="0.1" d="M424.312 213.992C420.656 212.146 419.55 206.918 421.684 202.095C421.571 202.291 421.463 202.491 421.36 202.702C418.835 207.689 419.879 213.293 423.69 215.221C427.501 217.149 432.639 214.665 435.16 209.678C435.268 209.473 435.36 209.262 435.453 209.056C432.835 213.637 427.964 215.843 424.312 213.992Z" fill="black"/>
<path opacity="0.1" d="M418.881 224.727C415.23 222.881 414.119 217.652 416.258 212.825C416.145 213.025 416.032 213.226 415.929 213.431C413.404 218.418 414.448 224.027 418.259 225.95C422.07 227.873 427.208 225.4 429.734 220.408C429.836 220.202 429.934 219.997 430.027 219.786C427.404 224.367 422.538 226.572 418.881 224.727Z" fill="black"/>
<path opacity="0.1" d="M413.45 235.456C409.798 233.611 408.687 228.382 410.827 223.56C410.714 223.755 410.601 223.955 410.498 224.166C407.972 229.153 409.022 234.757 412.833 236.685C416.644 238.613 421.777 236.13 424.302 231.143C424.405 230.937 424.503 230.726 424.595 230.521C421.978 235.102 417.107 237.307 413.45 235.456Z" fill="black"/>
<path opacity="0.1" d="M408.039 246.217C404.382 244.371 403.277 239.143 405.411 234.32C405.298 234.515 405.19 234.716 405.082 234.922C402.562 239.909 403.606 245.518 407.417 247.446C411.228 249.373 416.366 246.89 418.886 241.898C418.994 241.693 419.087 241.487 419.18 241.276C416.546 245.831 411.676 248.037 408.039 246.217Z" fill="black"/>
<path opacity="0.1" d="M402.593 256.921C398.936 255.075 397.83 249.846 399.965 245.024C399.851 245.219 399.743 245.42 399.641 245.631C397.115 250.618 398.159 256.221 401.97 258.149C405.782 260.077 410.92 257.594 413.445 252.607C413.548 252.402 413.646 252.191 413.738 251.985C411.125 256.566 406.244 258.771 402.593 256.921Z" fill="black"/>
<path opacity="0.1" d="M397.161 267.656C393.51 265.81 392.399 260.581 394.538 255.759C394.425 255.954 394.312 256.155 394.209 256.361C391.684 261.348 392.728 266.957 396.544 268.885C400.36 270.812 405.468 268.324 408.039 263.337C408.142 263.131 408.24 262.926 408.332 262.715C405.684 267.296 400.839 269.501 397.161 267.656Z" fill="black"/>
<path opacity="0.1" d="M391.73 278.385C388.078 276.54 386.967 271.311 389.107 266.489C388.994 266.689 388.886 266.884 388.778 267.095C386.258 272.082 387.302 277.686 391.113 279.614C394.924 281.542 400.062 279.059 402.582 274.072C402.69 273.866 402.783 273.655 402.875 273.45C400.258 278.03 395.387 280.236 391.73 278.385Z" fill="black"/>
<path opacity="0.1" d="M386.304 289.12C382.647 287.275 381.541 282.046 383.676 277.224C383.563 277.419 383.455 277.619 383.352 277.825C380.826 282.812 381.87 288.421 385.682 290.349C389.493 292.277 394.631 289.794 397.156 284.802C397.259 284.596 397.352 284.39 397.444 284.18C394.826 288.76 389.956 290.945 386.304 289.12Z" fill="black"/>
<path opacity="0.1" d="M382.735 296.174C379.083 294.323 377.972 289.1 380.112 284.272C379.998 284.472 379.885 284.673 379.782 284.879C377.257 289.866 378.301 295.475 382.112 297.397C385.923 299.32 391.062 296.847 393.587 291.855C393.69 291.65 393.787 291.444 393.88 291.233C391.257 295.814 386.386 298.02 382.735 296.174Z" fill="black"/>
<path d="M480.863 248.407C481.429 246.783 481.775 245.09 481.891 243.374C482.269 243.373 482.643 243.294 482.989 243.143C483.334 242.991 483.645 242.77 483.902 242.492C484.158 242.215 484.355 241.888 484.479 241.531C484.603 241.175 484.652 240.796 484.624 240.42C484.595 240.043 484.489 239.677 484.312 239.343C484.135 239.009 483.891 238.716 483.596 238.481C483.3 238.245 482.959 238.074 482.594 237.976C482.229 237.879 481.848 237.858 481.475 237.914C480.863 235.131 479.64 232.52 477.892 230.269C476.145 228.018 473.918 226.185 471.373 224.902C471.702 224.251 471.759 223.497 471.531 222.805C471.304 222.112 470.81 221.539 470.16 221.21C469.509 220.882 468.754 220.825 468.062 221.052C467.369 221.28 466.795 221.773 466.467 222.424C466.348 222.655 466.264 222.903 466.22 223.159C463.202 222.597 460.094 222.763 457.153 223.644C454.213 224.525 451.525 226.095 449.314 228.223C447.644 227.953 445.946 227.903 444.263 228.074L442.036 238.207L441.903 228.439C439.346 228.999 436.931 230.074 434.805 231.599C432.679 233.123 430.886 235.066 429.536 237.306C428.186 239.547 427.307 242.04 426.954 244.631C426.6 247.223 426.779 249.86 427.479 252.38C428.18 254.9 429.387 257.251 431.027 259.29C432.667 261.328 434.706 263.01 437.019 264.234C439.332 265.458 441.87 266.197 444.478 266.407C447.086 266.617 449.71 266.293 452.189 265.455C452.454 265.934 452.857 266.321 453.346 266.566C453.85 266.822 454.42 266.916 454.979 266.836C455.539 266.756 456.059 266.505 456.471 266.119C456.883 265.732 457.165 265.228 457.28 264.675C457.394 264.122 457.335 263.547 457.111 263.029C457.988 262.426 458.814 261.752 459.58 261.013C463.595 261.666 467.714 261.031 471.346 259.2C474.978 257.368 477.937 254.434 479.798 250.818L469.434 249.076L480.863 248.407Z" fill="#99338A"/>
<g opacity="0.1">
<path d="M464.851 253.327C461.025 248.278 458.679 242.299 455.979 236.562C454.895 234.207 453.681 231.914 452.343 229.693L450.316 227.333C449.977 227.621 449.638 227.919 449.288 228.233C447.618 227.963 445.92 227.913 444.237 228.084L442.01 238.217L441.876 228.449C439.32 229.009 436.905 230.084 434.779 231.609C432.653 233.134 430.86 235.076 429.51 237.316C428.16 239.557 427.281 242.05 426.928 244.641C426.574 247.233 426.753 249.87 427.453 252.39C428.154 254.91 429.361 257.261 431.001 259.3C432.641 261.338 434.68 263.02 436.993 264.244C439.305 265.468 441.844 266.207 444.452 266.417C447.06 266.627 449.684 266.303 452.163 265.465C452.428 265.944 452.831 266.331 453.32 266.576C453.824 266.832 454.394 266.926 454.953 266.846C455.512 266.766 456.033 266.515 456.445 266.129C456.857 265.742 457.139 265.238 457.253 264.685C457.368 264.132 457.309 263.557 457.085 263.039C457.962 262.437 458.788 261.762 459.554 261.023C463.485 261.66 467.517 261.063 471.095 259.317C468.706 257.667 466.598 255.645 464.851 253.327Z" fill="black"/>
</g>
<path d="M397.089 231.631C397.301 231.212 397.402 230.746 397.383 230.276C397.363 229.807 397.223 229.351 396.976 228.951C396.729 228.551 396.384 228.221 395.974 227.993C395.563 227.765 395.101 227.646 394.631 227.647C393.851 223.515 391.737 219.753 388.613 216.938C389.117 214.975 389.308 212.945 389.179 210.923L379.073 209.2L388.886 208.583C388.71 207.662 388.467 206.755 388.161 205.869C388.543 205.606 388.854 205.253 389.066 204.841C389.313 204.349 389.408 203.795 389.337 203.249C389.266 202.704 389.033 202.192 388.668 201.78C388.303 201.368 387.823 201.075 387.29 200.939C386.756 200.802 386.194 200.829 385.676 201.016C383.078 197.344 379.274 194.7 374.927 193.54C370.58 192.381 365.964 192.781 361.881 194.67C357.798 196.56 354.506 199.819 352.578 203.883C350.65 207.946 350.206 212.556 351.325 216.912C350.73 217.163 350.244 217.619 349.957 218.197C349.704 218.695 349.61 219.258 349.686 219.811C349.762 220.364 350.004 220.881 350.381 221.292C350.758 221.704 351.252 221.991 351.796 222.115C352.341 222.239 352.91 222.194 353.428 221.986C354.415 223.643 355.644 225.142 357.075 226.434C356.033 230.494 356.347 234.784 357.97 238.649L371.522 235.132L359.436 241.487C361.573 244.881 364.718 247.523 368.431 249.043C372.144 250.563 376.239 250.885 380.144 249.964C384.05 249.043 387.569 246.925 390.211 243.906C392.852 240.887 394.484 237.119 394.878 233.127C395.343 233.087 395.791 232.929 396.178 232.667C396.565 232.405 396.879 232.048 397.089 231.631Z" fill="#99338A"/>
<path opacity="0.1" d="M397.089 231.631C397.301 231.212 397.402 230.746 397.383 230.276C397.363 229.807 397.223 229.351 396.976 228.951C396.729 228.551 396.384 228.221 395.974 227.993C395.563 227.765 395.101 227.646 394.631 227.647C393.851 223.515 391.737 219.753 388.613 216.938C388.696 216.614 388.768 216.295 388.829 215.971C388.47 216.231 388.138 216.526 387.837 216.85C386.011 218.85 385.075 221.539 383.269 223.56C381.14 225.945 377.951 227.189 374.768 227.523C371.584 227.858 368.38 227.369 365.237 226.757C362.635 226.243 359.996 225.647 357.358 225.899C357.101 225.899 356.843 225.955 356.607 225.997C356.761 226.146 356.915 226.295 357.075 226.439C356.033 230.499 356.347 234.789 357.97 238.654L371.522 235.132L359.436 241.487C361.573 244.881 364.718 247.523 368.431 249.043C372.144 250.563 376.239 250.885 380.144 249.964C384.05 249.043 387.569 246.925 390.211 243.906C392.852 240.887 394.484 237.119 394.878 233.127C395.343 233.087 395.791 232.929 396.178 232.667C396.565 232.405 396.879 232.048 397.089 231.631Z" fill="black"/>
</g>
<g opacity="0.1">
<path d="M46.0269 262.838C46.6852 260.838 49.3546 259.918 51.9879 260.782C52.3667 260.906 52.7334 261.064 53.0834 261.255C53.2532 261.209 53.428 261.167 53.5978 261.137C53.4533 260.562 53.3977 259.969 53.4332 259.378C52.5292 258.767 51.7963 257.935 51.304 256.962C50.8116 255.988 50.5761 254.905 50.6198 253.815C49.708 253.216 48.9729 252.383 48.4905 251.404C47.9879 250.434 47.7518 249.349 47.8065 248.258C46.8952 247.655 46.1604 246.821 45.6772 245.842C44.4119 243.333 44.9262 240.51 46.855 239.533C48.7837 238.556 51.3656 239.816 52.636 242.325C53.1377 243.297 53.372 244.384 53.3149 245.476C54.2213 246.084 54.9561 246.914 55.4488 247.887C55.9415 248.861 56.1755 249.944 56.1282 251.034C57.0343 251.643 57.7688 252.474 58.2614 253.448C58.754 254.422 58.9882 255.506 58.9416 256.597C59.848 257.204 60.5828 258.035 61.0755 259.008C61.5682 259.981 61.8022 261.065 61.7549 262.154C62.6681 262.757 63.4047 263.591 63.8894 264.571C64.1207 265.045 64.2934 265.546 64.4037 266.062C64.7206 265.596 65.1074 265.181 65.5507 264.833C65.6035 264.437 65.6931 264.046 65.8181 263.666C66.6873 261.034 69.0069 259.43 71.0077 260.067C73.0084 260.705 73.9239 263.394 73.065 266.026C72.71 267.156 72.0281 268.156 71.1054 268.9C71.0519 269.294 70.9624 269.683 70.8379 270.062C70.4158 271.457 69.4754 272.638 68.2097 273.362C68.3089 273.699 68.3812 274.043 68.4257 274.391C68.9567 274.9 69.3968 275.496 69.727 276.154C70.0635 276.81 70.2828 277.52 70.375 278.252C70.908 278.761 71.3499 279.357 71.6814 280.015C72.0173 280.671 72.2365 281.381 72.3295 282.113C72.8637 282.622 73.3057 283.221 73.6359 283.881C74.9062 286.39 74.3816 289.218 72.4632 290.184C70.5448 291.151 67.9526 289.907 66.6822 287.393C66.3472 286.736 66.128 286.026 66.0341 285.295C64.9625 284.267 64.2732 282.906 64.0797 281.434C63.0081 280.406 62.3188 279.045 62.1253 277.573C61.5926 277.064 61.1508 276.467 60.8189 275.81C60.4862 275.152 60.2671 274.443 60.1708 273.712C59.6398 273.202 59.1997 272.606 58.8696 271.948C58.5331 271.292 58.3138 270.582 58.2215 269.851C57.8904 269.542 57.5953 269.198 57.342 268.823C56.2838 269.039 55.1872 268.972 54.1635 268.627C53.7833 268.5 53.415 268.34 53.0629 268.149C51.919 268.453 50.7106 268.41 49.5912 268.026C46.9835 267.157 45.3737 264.838 46.0269 262.838Z" fill="#3F3D56"/>
<g opacity="0.1">
<path d="M50.6711 254.957C50.9438 255.225 51.2438 255.465 51.5661 255.671C51.5225 256.409 51.6203 257.149 51.8541 257.851C51.6474 257.571 51.465 257.273 51.3089 256.962C50.9872 256.333 50.7717 255.655 50.6711 254.957Z" fill="black"/>
<path d="M47.8577 249.404C48.1317 249.67 48.4315 249.907 48.7526 250.114C48.7094 250.854 48.8071 251.595 49.0406 252.299C48.4176 251.444 48.0116 250.451 47.8577 249.404Z" fill="black"/>
<path d="M54.2509 247.332C54.2753 246.951 54.2615 246.569 54.2097 246.191C54.7125 246.687 55.1312 247.262 55.4492 247.893C55.6045 248.204 55.7352 248.527 55.8401 248.859C55.4115 248.255 54.8723 247.736 54.2509 247.332Z" fill="black"/>
<path d="M72.0979 280.986C71.873 280.671 71.6181 280.379 71.3367 280.112C71.2897 279.764 71.214 279.42 71.1104 279.084C71.3336 279.386 71.5314 279.706 71.7018 280.04C71.8579 280.345 71.9903 280.661 72.0979 280.986Z" fill="black"/>
<path d="M70.1278 277.125C69.903 276.81 69.648 276.517 69.3667 276.251C69.3247 275.903 69.2524 275.559 69.1506 275.223C69.5744 275.797 69.901 276.436 70.1176 277.115L70.1278 277.125Z" fill="black"/>
<path d="M53.4895 260.53C53.7595 260.796 54.0579 261.032 54.3793 261.234C54.3408 261.825 54.3964 262.419 54.5439 262.992C54.3705 263.023 54.1988 263.062 54.0295 263.111C53.6772 262.921 53.3089 262.763 52.9289 262.638C50.2955 261.774 47.6262 262.694 46.973 264.694C46.8093 265.192 46.7792 265.724 46.8856 266.236C46.4624 265.792 46.1615 265.245 46.0119 264.649C45.8623 264.054 45.8692 263.43 46.0318 262.838C46.6901 260.838 49.3595 259.918 51.9928 260.782C52.3716 260.906 52.7383 261.064 53.0883 261.255C53.2581 261.208 53.4329 261.167 53.6027 261.136C53.5532 260.937 53.5154 260.734 53.4895 260.53Z" fill="black"/>
<path d="M73.0649 282.925C73.2893 283.228 73.4872 283.549 73.6564 283.886C73.8134 284.198 73.9459 284.521 74.0524 284.853C73.8276 284.536 73.5727 284.241 73.2912 283.974C73.2454 283.618 73.1697 283.267 73.0649 282.925Z" fill="black"/>
<path d="M57.0639 252.9C57.0884 252.519 57.0746 252.137 57.0227 251.759C57.5267 252.254 57.9455 252.829 58.2622 253.461C58.4175 253.77 58.5482 254.092 58.6531 254.422C58.2244 253.819 57.6851 253.302 57.0639 252.9Z" fill="black"/>
<path d="M61.1324 275.573C61.1805 275.957 61.2649 276.336 61.3844 276.704C60.9558 276.116 60.629 275.461 60.4175 274.766C60.6312 275.055 60.8704 275.326 61.1324 275.573Z" fill="black"/>
<path d="M65.0362 283.295C65.0881 283.679 65.1741 284.057 65.2933 284.426C65.0867 284.145 64.9043 283.848 64.7482 283.537C64.579 283.206 64.4379 282.862 64.3264 282.508C64.5418 282.789 64.7792 283.052 65.0362 283.295Z" fill="black"/>
<path d="M63.087 279.434C63.1351 279.818 63.2195 280.197 63.339 280.565C63.1342 280.283 62.9519 279.986 62.7938 279.675C62.624 279.345 62.4829 279.001 62.3721 278.647C62.5867 278.93 62.826 279.193 63.087 279.434Z" fill="black"/>
<path d="M59.178 271.707C59.2255 272.092 59.3099 272.473 59.43 272.843C59.235 272.56 59.063 272.263 58.9157 271.953C58.7432 271.624 58.6004 271.28 58.4888 270.925C58.6943 271.206 58.9249 271.468 59.178 271.707Z" fill="black"/>
<path d="M71.9693 261.943C69.9686 261.285 67.649 262.889 66.785 265.542C66.6599 265.922 66.5704 266.313 66.5175 266.709C66.0727 267.055 65.684 267.468 65.3654 267.933C65.246 267.416 65.0647 266.915 64.8254 266.442C64.7379 266.267 64.6402 266.098 64.5374 265.928C64.8293 265.523 65.1754 265.159 65.566 264.848C65.6189 264.452 65.7084 264.061 65.8334 263.681C66.7027 261.049 69.0223 259.445 71.023 260.082C71.5967 260.302 72.1037 260.667 72.4949 261.141C72.886 261.615 73.1479 262.182 73.2552 262.787C72.9056 262.4 72.463 262.11 71.9693 261.943Z" fill="black"/>
<path d="M62.6908 264.016C62.7153 263.635 62.7015 263.252 62.6497 262.874C63.1537 263.369 63.5725 263.944 63.8892 264.576C64.0444 264.888 64.1751 265.211 64.2801 265.543C63.8528 264.937 63.3133 264.418 62.6908 264.016Z" fill="black"/>
<path d="M59.8773 258.453C59.9017 258.072 59.8879 257.689 59.8362 257.311C60.3378 257.809 60.7563 258.383 61.0757 259.013C61.231 259.325 61.3617 259.648 61.4666 259.98C61.038 259.375 60.4987 258.857 59.8773 258.453Z" fill="black"/>
<path d="M66.9905 287.156C67.0399 287.542 67.126 287.923 67.2477 288.292C67.0421 288.009 66.8598 287.71 66.7025 287.398C66.5333 287.067 66.3923 286.723 66.2808 286.369C66.4962 286.65 66.7335 286.913 66.9905 287.156Z" fill="black"/>
</g>
<path d="M42.1849 237.137C41.273 236.538 40.5379 235.705 40.0556 234.726C38.7852 232.212 39.3098 229.39 41.2282 228.418C43.1466 227.446 45.7388 228.696 47.0092 231.21C47.5117 232.179 47.7461 233.266 47.6881 234.356C48.5942 234.965 49.3287 235.796 49.8213 236.77C50.3139 237.744 50.5481 238.828 50.5015 239.919C51.4139 240.52 52.1505 241.352 52.6359 242.33C52.7903 242.638 52.921 242.958 53.0268 243.286C52.3455 242.314 51.3646 241.592 50.234 241.23C50.1081 241.631 49.9033 242.004 49.6317 242.326C49.3601 242.647 49.0271 242.911 48.6522 243.103C48.2772 243.294 47.8679 243.409 47.448 243.441C47.0281 243.472 46.6062 243.42 46.2069 243.286C45.8255 244.412 45.8255 245.631 46.2069 246.757C46.0136 246.477 45.8417 246.183 45.6926 245.878C45.1899 244.908 44.9539 243.822 45.0085 242.731C44.1035 242.121 43.3698 241.29 42.8773 240.316C42.3848 239.342 42.15 238.259 42.1951 237.168L42.1849 237.137Z" fill="#3F3D56"/>
<path d="M11.2638 201.489C10.4836 201.124 9.72925 200.707 9.00593 200.239L17.3791 194.121L7.53496 199.185C5.54458 197.603 3.89809 195.632 2.69624 193.392C1.4944 191.152 0.76248 188.69 0.54528 186.157L17.2814 186.332L0.509277 183.525C0.653692 180.968 1.32346 178.467 2.47686 176.179C3.63026 173.892 5.24257 171.866 7.21334 170.229C9.18411 168.591 11.4711 167.377 13.9319 166.662C16.3926 165.946 18.9744 165.745 21.5163 166.07C24.0583 166.396 26.5059 167.241 28.7068 168.554C30.9076 169.866 32.8145 171.617 34.3087 173.699C35.8028 175.78 36.8522 178.146 37.3915 180.651C37.9307 183.155 37.9482 185.744 37.4429 188.255C38.6578 188.817 39.8095 189.506 40.8786 190.312L32.1351 202.465L42.6325 191.833C44.8476 194.008 46.4854 196.701 47.3978 199.668C48.3102 202.634 48.4684 205.782 47.858 208.825C51.0335 210.304 53.7287 212.645 55.6353 215.583C57.5419 218.521 58.5831 221.935 58.6396 225.436C58.6962 228.938 57.7659 232.384 55.9552 235.382C54.1444 238.379 51.5263 240.807 48.4002 242.387C45.2741 243.968 41.7662 244.636 38.2777 244.318C34.7892 243.999 31.4608 242.705 28.6733 240.584C25.8857 238.464 23.7514 235.602 22.5146 232.325C21.2777 229.049 20.9881 225.491 21.6789 222.058C17.8888 220.293 14.8018 217.306 12.9132 213.577C11.0245 209.847 10.4437 205.592 11.2638 201.494V201.489Z" fill="#99338A"/>
<path opacity="0.1" d="M46.2121 196.748C48.109 200.48 48.6889 204.743 47.8579 208.845C51.0334 210.324 53.7286 212.666 55.6352 215.604C57.5418 218.541 58.583 221.956 58.6395 225.457C58.6961 228.958 57.7658 232.405 55.9551 235.402C54.1443 238.4 51.5262 240.828 48.4001 242.408C45.274 243.988 41.7661 244.657 38.2776 244.338C34.7891 244.019 31.4607 242.725 28.6732 240.605C25.8856 238.484 23.7514 235.622 22.5145 232.346C21.2776 229.07 20.988 225.512 21.6788 222.079C18.0117 220.377 45.2709 194.882 46.2121 196.748Z" fill="black"/>
<path d="M25.1865 169.747C26.7176 169.747 27.9587 168.506 27.9587 166.976C27.9587 165.445 26.7176 164.205 25.1865 164.205C23.6555 164.205 22.4143 165.445 22.4143 166.976C22.4143 168.506 23.6555 169.747 25.1865 169.747Z" fill="#99338A"/>
<path d="M9.00585 171.526C10.5369 171.526 11.7781 170.285 11.7781 168.754C11.7781 167.224 10.5369 165.983 9.00585 165.983C7.4748 165.983 6.23364 167.224 6.23364 168.754C6.23364 170.285 7.4748 171.526 9.00585 171.526Z" fill="#99338A"/>
<path d="M2.77221 196.404C4.30326 196.404 5.54442 195.163 5.54442 193.633C5.54442 192.102 4.30326 190.862 2.77221 190.862C1.24116 190.862 0 192.102 0 193.633C0 195.163 1.24116 196.404 2.77221 196.404Z" fill="#99338A"/>
<path d="M11.1919 208.83C12.7229 208.83 13.9641 207.589 13.9641 206.059C13.9641 204.528 12.7229 203.288 11.1919 203.288C9.66084 203.288 8.41968 204.528 8.41968 206.059C8.41968 207.589 9.66084 208.83 11.1919 208.83Z" fill="#99338A"/>
<path d="M22.6919 234.634C24.2229 234.634 25.4641 233.393 25.4641 231.863C25.4641 230.332 24.2229 229.092 22.6919 229.092C21.1608 229.092 19.9197 230.332 19.9197 231.863C19.9197 233.393 21.1608 234.634 22.6919 234.634Z" fill="#99338A"/>
<path opacity="0.1" d="M22.6919 234.634C24.2229 234.634 25.4641 233.393 25.4641 231.863C25.4641 230.332 24.2229 229.092 22.6919 229.092C21.1608 229.092 19.9197 230.332 19.9197 231.863C19.9197 233.393 21.1608 234.634 22.6919 234.634Z" fill="black"/>
<path d="M48.2693 205.406C49.8003 205.406 51.0415 204.165 51.0415 202.635C51.0415 201.104 49.8003 199.864 48.2693 199.864C46.7382 199.864 45.4971 201.104 45.4971 202.635C45.4971 204.165 46.7382 205.406 48.2693 205.406Z" fill="#99338A"/>
<path opacity="0.1" d="M48.2693 205.406C49.8003 205.406 51.0415 204.165 51.0415 202.635C51.0415 201.104 49.8003 199.864 48.2693 199.864C46.7382 199.864 45.4971 201.104 45.4971 202.635C45.4971 204.165 46.7382 205.406 48.2693 205.406Z" fill="black"/>
<path opacity="0.1" d="M51.2268 248.176C53.0681 247.245 53.6235 244.613 52.5486 242.181C52.6052 242.284 52.6617 242.381 52.7132 242.484C53.9836 244.998 53.459 247.821 51.5354 248.792C49.6118 249.764 47.0299 248.515 45.7595 246.001C45.7081 245.898 45.6566 245.795 45.6104 245.687C46.9322 247.996 49.3855 249.106 51.2268 248.176Z" fill="black"/>
<path opacity="0.1" d="M53.9577 253.584C55.799 252.654 56.3596 250.016 55.2847 247.59C55.3413 247.687 55.3978 247.79 55.4493 247.893C56.7197 250.407 56.195 253.23 54.2715 254.201C52.3479 255.173 49.766 253.924 48.4956 251.41C48.439 251.307 48.3927 251.199 48.3464 251.096C49.6683 253.415 52.1267 254.515 53.9577 253.584Z" fill="black"/>
<path opacity="0.1" d="M56.694 258.988C58.5353 258.057 59.0959 255.425 58.0159 252.993C58.0776 253.096 58.129 253.193 58.1856 253.301C59.456 255.81 58.9262 258.638 57.0078 259.604C55.0894 260.571 52.5023 259.327 51.2319 256.813C51.1753 256.71 51.1291 256.607 51.0828 256.499C52.3994 258.808 54.8528 259.918 56.694 258.988Z" fill="black"/>
<path opacity="0.1" d="M59.4304 264.396C61.2717 263.466 61.8323 260.833 60.7522 258.402C60.8088 258.499 60.8653 258.602 60.9168 258.705C62.1923 261.219 61.6625 264.041 59.7441 265.013C57.8257 265.985 55.2335 264.736 53.9631 262.222C53.9117 262.119 53.8654 262.011 53.8191 261.908C55.1358 264.211 57.5891 265.327 59.4304 264.396Z" fill="black"/>
<path opacity="0.1" d="M62.1665 269.799C64.0078 268.869 64.5632 266.236 63.4883 263.81C63.5449 263.907 63.6014 264.01 63.6529 264.113C64.9233 266.627 64.3986 269.45 62.4802 270.421C60.5618 271.393 57.9696 270.139 56.6992 267.63C56.6478 267.522 56.6015 267.419 56.55 267.316C57.8719 269.619 60.3252 270.73 62.1665 269.799Z" fill="black"/>
<path opacity="0.1" d="M64.9026 275.208C66.7438 274.277 67.2993 271.645 66.2244 269.213C66.281 269.316 66.3375 269.414 66.389 269.517C67.6593 272.031 67.1347 274.853 65.2163 275.825C63.2979 276.797 60.7057 275.547 59.4353 273.033C59.3839 272.93 59.3324 272.828 59.2861 272.72C60.6079 275.008 63.0613 276.139 64.9026 275.208Z" fill="black"/>
<path opacity="0.1" d="M67.6389 280.616C69.475 279.686 70.0356 277.048 68.9607 274.622C69.0173 274.72 69.0739 274.822 69.1253 274.925C70.3957 277.439 69.8711 280.262 67.9475 281.233C66.0239 282.205 63.442 280.951 62.1716 278.442C62.1202 278.334 62.0688 278.231 62.0225 278.128C63.3443 280.431 65.7976 281.547 67.6389 280.616Z" fill="black"/>
<path opacity="0.1" d="M70.3701 286.02C72.2114 285.089 72.772 282.457 71.6919 280.025C71.7536 280.128 71.805 280.226 71.8616 280.334C73.132 282.843 72.6022 285.67 70.6838 286.637C68.7654 287.603 66.1783 286.359 64.9079 283.845C64.8514 283.742 64.8051 283.639 64.7588 283.531C66.0806 285.84 68.5288 286.95 70.3701 286.02Z" fill="black"/>
<path opacity="0.1" d="M72.1855 289.573C74.0268 288.642 74.5823 286.01 73.5073 283.578C73.5639 283.681 73.6205 283.778 73.6719 283.886C74.9423 286.395 74.4177 289.223 72.4993 290.189C70.5808 291.156 67.9886 289.912 66.7182 287.398C66.6668 287.295 66.6154 287.192 66.5691 287.084C67.8755 289.403 70.3288 290.503 72.1855 289.573Z" fill="black"/>
<path d="M22.7382 265.512C22.4525 264.694 22.2795 263.841 22.2239 262.977C22.0337 262.976 21.8457 262.937 21.6716 262.86C21.4975 262.783 21.3411 262.672 21.2121 262.532C21.0831 262.392 20.9843 262.228 20.9219 262.048C20.8594 261.869 20.8347 261.678 20.8493 261.488C20.8638 261.299 20.9173 261.114 21.0063 260.946C21.0954 260.778 21.2182 260.631 21.367 260.512C21.5157 260.394 21.6874 260.307 21.8711 260.258C22.0548 260.209 22.2467 260.198 22.4347 260.227C22.7434 258.825 23.3599 257.51 24.2396 256.376C25.1194 255.243 26.2404 254.319 27.5214 253.672C27.3557 253.344 27.3271 252.963 27.4418 252.614C27.5566 252.265 27.8054 251.976 28.1335 251.81C28.4615 251.645 28.842 251.616 29.1912 251.731C29.5403 251.846 29.8296 252.094 29.9953 252.422C30.0555 252.538 30.0972 252.663 30.1188 252.792C31.6406 252.513 33.2072 252.601 34.6885 253.048C36.1697 253.495 37.523 254.289 38.636 255.363C39.4861 255.224 40.351 255.2 41.2076 255.291L42.3288 260.391L42.3545 255.471C43.6298 255.766 44.8321 256.315 45.8891 257.087C46.9461 257.859 47.8358 258.836 48.5046 259.961C49.1735 261.086 49.6076 262.334 49.7807 263.631C49.9539 264.928 49.8626 266.246 49.5123 267.507C49.162 268.767 48.56 269.944 47.7425 270.966C46.9251 271.988 45.9091 272.833 44.7558 273.452C43.6025 274.071 42.3359 274.45 41.0322 274.566C39.7285 274.682 38.4147 274.533 37.1701 274.128C37.0348 274.367 36.8329 274.562 36.589 274.689C36.3348 274.817 36.0472 274.864 35.7654 274.823C35.4835 274.783 35.221 274.657 35.0133 274.462C34.8056 274.267 34.6628 274.014 34.6042 273.735C34.5457 273.456 34.5742 273.167 34.686 272.905C34.245 272.597 33.8303 272.253 33.4464 271.877C31.4234 272.204 29.3485 271.883 27.5191 270.96C25.6897 270.036 24.1998 268.557 23.2628 266.735L28.4832 265.856L22.7382 265.512Z" fill="#99338A"/>
<g opacity="0.1">
<path d="M30.803 267.99C32.7317 265.419 33.9147 262.437 35.2725 259.548C35.8163 258.359 36.4276 257.202 37.1035 256.083L38.1321 254.895C38.307 255.044 38.4767 255.193 38.6465 255.347C39.4966 255.208 40.3615 255.184 41.2181 255.275L42.3393 260.376L42.3548 255.471C43.63 255.766 44.8324 256.315 45.8893 257.087C46.9463 257.859 47.836 258.836 48.5048 259.961C49.1737 261.085 49.6078 262.334 49.781 263.631C49.9541 264.928 49.8628 266.246 49.5125 267.507C49.1622 268.767 48.5602 269.944 47.7427 270.966C46.9253 271.987 45.9093 272.833 44.756 273.452C43.6028 274.071 42.3361 274.45 41.0324 274.566C39.7287 274.682 38.415 274.533 37.1704 274.128C37.035 274.367 36.8331 274.562 36.5892 274.689C36.335 274.817 36.0475 274.864 35.7656 274.823C35.4838 274.783 35.2212 274.657 35.0135 274.462C34.8058 274.267 34.663 274.013 34.6044 273.735C34.5459 273.456 34.5744 273.166 34.6862 272.905C34.2452 272.597 33.8306 272.253 33.4467 271.876C31.4654 272.194 29.4345 271.894 27.6296 271.018C28.8436 270.186 29.9151 269.163 30.803 267.99Z" fill="black"/>
</g>
<path d="M64.9387 257.06C64.8564 256.898 64.807 256.721 64.7933 256.54C64.7795 256.359 64.8017 256.177 64.8586 256.004C64.9155 255.832 65.0059 255.672 65.1247 255.535C65.2435 255.397 65.3883 255.285 65.5507 255.204C65.7449 255.104 65.9601 255.053 66.1782 255.054C66.5706 252.972 67.6346 251.076 69.2076 249.656C68.9533 248.668 68.8578 247.646 68.9247 246.628L74.0114 245.775L69.0687 245.461C69.1583 244.997 69.282 244.54 69.439 244.093C69.2448 243.964 69.0871 243.787 68.9813 243.579C68.8576 243.332 68.8108 243.053 68.8469 242.778C68.8831 242.504 69.0004 242.246 69.184 242.039C69.3676 241.832 69.6089 241.684 69.8771 241.615C70.1452 241.546 70.4279 241.559 70.6888 241.651C71.5972 240.36 72.8111 239.312 74.2223 238.603C75.8844 237.76 77.7546 237.414 79.6085 237.606C81.4625 237.799 83.2215 238.522 84.6748 239.688C86.1281 240.855 87.2139 242.416 87.802 244.184C88.3901 245.952 88.4557 247.852 87.9907 249.656C88.2325 249.76 88.4397 249.93 88.5881 250.147C88.7364 250.364 88.8198 250.619 88.8285 250.882C88.8371 251.145 88.7706 251.405 88.6368 251.631C88.503 251.857 88.3075 252.041 88.073 252.16C87.8973 252.249 87.7045 252.3 87.5077 252.309C87.3108 252.317 87.1143 252.284 86.9312 252.211C86.4349 253.043 85.8158 253.795 85.0951 254.443C85.6222 256.493 85.4651 258.659 84.6476 260.612L77.8431 258.823L83.9276 262.026C83.0141 263.483 81.7293 264.671 80.2051 265.468C78.6808 266.266 76.9719 266.643 75.2534 266.563C73.535 266.482 71.869 265.946 70.426 265.01C68.9831 264.074 67.8153 262.77 67.0423 261.234C66.5041 260.165 66.1659 259.006 66.0445 257.815C65.811 257.794 65.5867 257.714 65.3932 257.581C65.1996 257.449 65.0431 257.269 64.9387 257.06Z" fill="#99338A"/>
<path opacity="0.1" d="M64.9387 257.06C64.8564 256.898 64.807 256.721 64.7933 256.54C64.7795 256.359 64.8017 256.177 64.8586 256.004C64.9155 255.832 65.0059 255.672 65.1247 255.535C65.2435 255.398 65.3883 255.285 65.5507 255.204C65.7449 255.104 65.9601 255.053 66.1782 255.055C66.5706 252.973 67.6346 251.076 69.2076 249.656C69.1664 249.497 69.1304 249.332 69.0996 249.173C69.2841 249.305 69.4562 249.453 69.6139 249.615C70.5345 250.643 71.0077 251.975 71.9129 252.993C73.0472 254.163 74.572 254.874 76.1973 254.993C77.8071 255.104 79.4245 254.974 80.9959 254.607C82.2919 254.274 83.6289 254.126 84.9665 254.17L85.3471 254.222L85.1105 254.443C85.6376 256.493 85.4805 258.659 84.663 260.612L77.8431 258.823L83.9276 262.026C83.0141 263.483 81.7293 264.671 80.2051 265.469C78.6808 266.266 76.9719 266.643 75.2534 266.563C73.535 266.482 71.869 265.946 70.426 265.01C68.9831 264.074 67.8153 262.771 67.0423 261.234C66.5041 260.165 66.1659 259.006 66.0445 257.815C65.811 257.794 65.5867 257.714 65.3932 257.581C65.1996 257.449 65.0431 257.27 64.9387 257.06Z" fill="black"/>
</g>
<path opacity="0.1" d="M178.136 26.688C176.103 26.3022 174.001 26.5313 172.098 27.3461C170.957 27.8545 169.722 28.1172 168.472 28.1172C167.223 28.1172 165.987 27.8545 164.846 27.3461C163.497 26.7551 162.036 26.4642 160.564 26.4935C159.091 26.5227 157.643 26.8716 156.319 27.5158C155.563 27.915 154.721 28.125 153.865 28.1276C150.409 28.1276 147.534 24.647 146.938 20.0559C147.627 19.5509 148.213 18.9193 148.666 18.1948C150.692 14.9301 153.809 12.8325 157.353 12.8325C160.896 12.8325 163.982 14.889 166.009 18.1331C166.614 19.1073 167.46 19.9094 168.465 20.4623C169.471 21.0151 170.601 21.3001 171.749 21.2898H171.841C174.567 21.2744 176.948 23.4799 178.136 26.688Z" fill="#99338A"/>
<path opacity="0.1" d="M188.639 12.2926L183.053 15.8349L186.443 9.66544C185.481 8.89984 184.292 8.4765 183.063 8.4624H182.976C182.589 8.46714 182.201 8.43789 181.819 8.375L179.921 9.57804L180.734 8.10252C179.396 7.63728 178.238 6.76538 177.421 5.60904L174.022 7.73235L176.161 3.84047C174.181 1.4601 171.507 0 168.57 0C165.047 0 161.884 2.0976 159.878 5.36226C159.278 6.33739 158.43 7.13641 157.421 7.67819C156.412 8.21997 155.277 8.4852 154.133 8.44698H153.963C150.075 8.44698 146.917 12.853 146.917 18.2975C146.917 23.742 150.075 28.1429 153.963 28.1429C154.818 28.1403 155.66 27.9304 156.416 27.5311C157.741 26.8864 159.189 26.5377 160.662 26.5093C162.135 26.4809 163.596 26.7734 164.944 27.3666C166.085 27.8733 167.321 28.1352 168.57 28.1352C169.819 28.1352 171.054 27.8733 172.196 27.3666C173.534 26.786 174.981 26.5002 176.439 26.5286C177.897 26.557 179.332 26.8989 180.646 27.5311C181.397 27.9197 182.229 28.1241 183.074 28.1275C186.967 28.1275 190.12 23.7215 190.12 18.2821C190.134 16.1933 189.624 14.1344 188.639 12.2926Z" fill="#99338A"/>
<path opacity="0.1" d="M61.899 97.914C58.9947 97.3647 55.9926 97.6904 53.2738 98.8497C51.6422 99.5727 49.8765 99.9441 48.0918 99.9397C46.3071 99.9352 44.5433 99.5551 42.9153 98.824C40.989 97.9798 38.9021 97.5641 36.7991 97.6058C34.6962 97.6476 32.6274 98.1457 30.7361 99.0657C29.6544 99.6353 28.451 99.9351 27.2284 99.9397C22.2909 99.9397 18.1814 94.9681 17.3276 88.408C18.3143 87.6893 19.1526 86.7868 19.7964 85.75C22.692 81.0869 27.177 78.0896 32.2122 78.0896C37.2474 78.0896 41.6758 81.0509 44.556 85.6626C45.4216 87.0603 46.6345 88.2102 48.0766 89.0003C49.5187 89.7904 51.1408 90.1939 52.7852 90.1714H52.9138C56.8124 90.1663 60.2172 93.3178 61.899 97.914Z" fill="#99338A"/>
<path opacity="0.1" d="M76.9172 77.3235L68.9349 82.3825L73.7798 73.5756C72.4068 72.48 70.7071 71.8739 68.9503 71.8533H68.8218C68.2671 71.8614 67.7129 71.8201 67.1656 71.7299L64.4706 73.4728L65.6329 71.3649C63.715 70.695 62.0586 69.4351 60.9011 67.7661L56.0562 70.8508L59.1062 65.2469C56.2722 61.8485 52.4559 59.7664 48.259 59.7664C43.2238 59.7664 38.7389 62.7585 35.8432 67.4216C34.9856 68.8209 33.7721 69.9678 32.3265 70.7454C30.8808 71.523 29.2548 71.9035 27.6141 71.8482H27.3415C21.7816 71.8482 17.2761 78.1461 17.2761 85.9196C17.2761 93.6931 21.7816 99.991 27.3415 99.991C28.5649 99.9878 29.769 99.686 30.8492 99.1119C32.7408 98.1927 34.8098 97.6955 36.9127 97.6546C39.0157 97.6138 41.1024 98.0303 43.0284 98.8754C44.6564 99.6065 46.4202 99.9866 48.2049 99.991C49.9896 99.9955 51.7553 99.6241 53.3869 98.9011C55.2986 98.0717 57.3665 97.663 59.4502 97.703C61.5339 97.7429 63.5846 98.2304 65.4632 99.1325C66.5332 99.6922 67.7221 99.9867 68.9298 99.991C74.4896 99.991 78.9951 93.6879 78.9951 85.9196C79.0339 82.9255 78.3194 79.9696 76.9172 77.3235Z" fill="#99338A"/>
<path opacity="0.1" d="M384.699 46.7386C386.733 46.3531 388.835 46.5822 390.738 47.3967C391.878 47.9053 393.112 48.1681 394.361 48.1681C395.61 48.1681 396.844 47.9053 397.984 47.3967C399.333 46.8057 400.794 46.5148 402.267 46.5441C403.739 46.5734 405.188 46.9222 406.512 47.5664C407.268 47.9651 408.11 48.175 408.965 48.1782C412.422 48.1782 415.302 44.6976 415.898 40.1065C415.208 39.6029 414.621 38.971 414.17 38.2454C412.154 34.9704 409.001 32.8574 405.468 32.8574C401.934 32.8574 398.843 34.9139 396.817 38.158C396.213 39.1366 395.366 39.9427 394.358 40.4984C393.351 41.0541 392.217 41.3406 391.067 41.3301H390.979C388.243 41.325 385.857 43.5305 384.699 46.7386Z" fill="#99338A"/>
<path opacity="0.1" d="M374.166 32.3433L379.752 35.8753L376.357 29.7059C377.319 28.941 378.508 28.5177 379.736 28.5028H379.829C380.217 28.5073 380.604 28.478 380.986 28.4154L382.879 29.6185L382.066 28.1429C383.413 27.6855 384.583 26.8169 385.409 25.6598L388.799 27.8088L386.654 23.9169C388.639 21.5365 391.283 20.0764 394.251 20.0764C397.774 20.0764 400.937 22.174 402.943 25.4387C403.543 26.4142 404.39 27.2135 405.399 27.7553C406.408 28.2971 407.543 28.5622 408.688 28.5234H408.873C412.766 28.5234 415.919 32.9294 415.919 38.3739C415.919 43.8184 412.766 48.2193 408.873 48.2193C408.018 48.2155 407.176 48.0056 406.42 47.6075C405.095 46.9628 403.647 46.6141 402.174 46.5857C400.701 46.5573 399.24 46.8498 397.892 47.443C396.751 47.9496 395.517 48.2114 394.269 48.2114C393.02 48.2114 391.786 47.9496 390.645 47.443C389.307 46.8623 387.859 46.5764 386.4 46.6048C384.941 46.6332 383.505 46.9752 382.19 47.6075C381.44 47.9967 380.607 48.2011 379.762 48.2039C375.874 48.2039 372.716 43.7979 372.716 38.3585C372.688 36.2637 373.187 34.1955 374.166 32.3433Z" fill="#99338A"/>
<path opacity="0.1" d="M316.634 399.409C349.3 399.409 375.781 394.805 375.781 389.127C375.781 383.448 349.3 378.844 316.634 378.844C283.968 378.844 257.486 383.448 257.486 389.127C257.486 394.805 283.968 399.409 316.634 399.409Z" fill="#99338A"/>
<path d="M285.677 340.285L194.029 339.108L194.302 336.758L198.73 297.999H279.217L285.137 336.758L285.589 339.699L285.677 340.285Z" fill="#D0D2D5"/>
<path opacity="0.1" d="M285.589 339.699H239.855L194.029 339.108L194.302 336.758H285.137L285.589 339.699Z" fill="black"/>
<path d="M300.366 337.35H178.753V340.285H300.366V337.35Z" fill="#D0D2D5"/>
<path d="M416.392 65.2058C416.399 63.18 415.601 61.2343 414.174 59.7961C412.747 58.3579 410.807 57.5447 408.78 57.5352H69.1614C68.157 57.5399 67.1635 57.7423 66.2374 58.1308C65.3113 58.5194 64.4708 59.0865 63.764 59.7997C63.0571 60.513 62.4977 61.3584 62.1178 62.2877C61.7378 63.2171 61.5447 64.2121 61.5494 65.2161V270.992H416.392V65.2058Z" fill="#3F3D56"/>
<path d="M61.5493 268.936V293.038C61.5493 295.056 62.3513 296.991 63.7788 298.418C65.2063 299.845 67.1425 300.647 69.1613 300.647H408.78C410.799 300.647 412.735 299.845 414.163 298.418C415.59 296.991 416.392 295.056 416.392 293.038V268.936H61.5493Z" fill="#D0D2D5"/>
<path d="M403.467 70.4395H76.2383V255.425H403.467V70.4395Z" fill="white"/>
<path d="M240.735 291.501C241.937 291.502 243.123 291.23 244.204 290.705C245.284 290.181 246.232 289.417 246.974 288.472C247.199 288.185 247.405 287.882 247.591 287.568L243.235 286.832L247.941 286.863C248.392 285.882 248.638 284.819 248.664 283.74C248.689 282.66 248.494 281.587 248.09 280.586L241.779 283.856L247.601 279.578C247.054 278.639 246.32 277.822 245.444 277.178C244.568 276.534 243.569 276.077 242.509 275.835C241.449 275.594 240.35 275.573 239.282 275.773C238.213 275.974 237.197 276.392 236.297 277.002C235.397 277.612 234.632 278.4 234.049 279.318C233.467 280.235 233.079 281.263 232.911 282.337C232.742 283.411 232.797 284.508 233.07 285.56C233.344 286.612 233.831 287.596 234.501 288.452C235.241 289.4 236.186 290.167 237.266 290.695C238.346 291.223 239.533 291.499 240.735 291.501Z" fill="#99338A"/>
<path opacity="0.1" d="M248.666 300.642L285.229 337.35L279.618 300.642H248.666Z" fill="black"/>
<path opacity="0.1" d="M403.565 70.46H75.9812V81.2667H403.565V70.46Z" fill="#444053"/>
<path opacity="0.3" d="M288.12 72.3418H190.017C189.853 72.3418 189.719 72.4753 189.719 72.64V78.6192C189.719 78.7839 189.853 78.9174 190.017 78.9174H288.12C288.284 78.9174 288.418 78.7839 288.418 78.6192V72.64C288.418 72.4753 288.284 72.3418 288.12 72.3418Z" fill="#99338A"/>
<path d="M285.486 76.3109H285.244L285.157 76.2337C285.456 75.8742 285.62 75.4213 285.62 74.9536C285.617 74.5697 285.5 74.1953 285.284 73.8776C285.069 73.5599 284.764 73.3133 284.408 73.1687C284.052 73.0241 283.661 72.9881 283.285 73.0653C282.909 73.1424 282.564 73.3292 282.294 73.6021C282.024 73.875 281.841 74.2218 281.767 74.5987C281.694 74.9756 281.734 75.3657 281.883 75.7198C282.031 76.0739 282.281 76.3761 282.601 76.5884C282.921 76.8006 283.297 76.9134 283.681 76.9124C284.149 76.9107 284.602 76.7452 284.962 76.4445L285.049 76.5216V76.7633L286.556 78.2696L287.003 77.8172L285.486 76.3109ZM283.681 76.3109C283.412 76.3119 283.149 76.2331 282.925 76.0846C282.701 75.9361 282.526 75.7245 282.423 75.4766C282.319 75.2286 282.292 74.9556 282.343 74.692C282.395 74.4283 282.524 74.186 282.714 73.9957C282.904 73.8053 283.145 73.6756 283.409 73.6228C283.673 73.57 283.946 73.5966 284.194 73.6991C284.443 73.8017 284.655 73.9757 284.804 74.199C284.954 74.4223 285.034 74.6849 285.034 74.9536C285.035 75.1318 285.001 75.3085 284.934 75.4734C284.866 75.6384 284.767 75.7883 284.641 75.9145C284.515 76.0408 284.365 76.1408 284.201 76.2088C284.036 76.2769 283.859 76.3115 283.681 76.3109Z" fill="#3F3D56"/>
<path opacity="0.8" d="M81.8703 77.8427C82.9639 77.8427 83.8504 76.9566 83.8504 75.8634C83.8504 74.7702 82.9639 73.884 81.8703 73.884C80.7767 73.884 79.8901 74.7702 79.8901 75.8634C79.8901 76.9566 80.7767 77.8427 81.8703 77.8427Z" fill="#FA5959"/>
<path opacity="0.8" d="M87.3168 77.8427C88.4104 77.8427 89.297 76.9566 89.297 75.8634C89.297 74.7702 88.4104 73.884 87.3168 73.884C86.2232 73.884 85.3367 74.7702 85.3367 75.8634C85.3367 76.9566 86.2232 77.8427 87.3168 77.8427Z" fill="#FED253"/>
<path opacity="0.8" d="M92.7687 77.8427C93.8623 77.8427 94.7489 76.9566 94.7489 75.8634C94.7489 74.7702 93.8623 73.884 92.7687 73.884C91.6751 73.884 90.7886 74.7702 90.7886 75.8634C90.7886 76.9566 91.6751 77.8427 92.7687 77.8427Z" fill="#8CCF4D"/>
<path d="M257.188 149.814C252.698 143.851 246.192 140.087 238.95 140.087C231.708 140.087 225.202 143.851 220.712 149.814C221.705 152.248 223.174 154.459 225.032 156.318C227.33 158.613 230.159 160.305 233.269 161.241C236.379 162.178 239.672 162.332 242.855 161.688C246.039 161.044 249.014 159.623 251.514 157.551C254.015 155.48 255.964 152.822 257.188 149.814Z" fill="#99338A"/>
<path d="M218.341 153.305C218.021 153.168 217.718 152.995 217.436 152.791C217.01 152.442 216.669 152.001 216.438 151.501C216.733 150.896 216.856 150.223 216.796 149.554C216.736 148.885 216.494 148.245 216.096 147.703C215.699 147.161 215.161 146.737 214.54 146.478C213.92 146.22 213.241 146.135 212.576 146.234C211.911 146.332 211.285 146.611 210.767 147.038C210.248 147.466 209.857 148.028 209.634 148.662C209.411 149.296 209.366 149.978 209.502 150.636C209.639 151.294 209.953 151.903 210.41 152.395C210.668 152.669 210.962 152.906 211.285 153.1C211.703 153.342 212.044 153.699 212.267 154.128C212.688 154.977 213.268 155.738 213.975 156.369C214.7 156.991 215.484 157.542 216.315 158.015C215.171 161.251 214.522 164.641 214.391 168.071C213.061 168.093 211.742 168.306 210.472 168.703C209.822 168.905 209.209 169.211 208.657 169.608C208.508 169.59 208.359 169.58 208.209 169.577C207.534 169.577 206.872 169.762 206.295 170.111C205.717 170.46 205.247 170.961 204.933 171.558C204.62 172.156 204.477 172.827 204.518 173.501C204.559 174.174 204.784 174.823 205.169 175.378C205.553 175.932 206.081 176.371 206.697 176.647C207.313 176.923 207.993 177.025 208.663 176.942C209.332 176.859 209.967 176.595 210.497 176.178C211.027 175.76 211.433 175.206 211.67 174.574C211.817 174.167 212.072 173.808 212.408 173.536C212.745 173.264 213.15 173.09 213.579 173.032C213.894 172.994 214.212 172.973 214.53 172.97C214.972 177.808 216.473 182.489 218.928 186.682C216.747 188.373 215.404 190.219 214.839 192.265C214.733 192.324 214.635 192.394 214.546 192.476C214.391 192.597 214.246 192.731 214.114 192.877C213.673 193.361 213.369 193.954 213.233 194.595C213.097 195.235 213.134 195.901 213.34 196.522C213.547 197.144 213.914 197.699 214.406 198.132C214.898 198.564 215.496 198.858 216.139 198.984C216.782 199.109 217.446 199.061 218.065 198.845C218.683 198.629 219.233 198.252 219.657 197.753C220.082 197.255 220.366 196.652 220.481 196.008C220.596 195.363 220.537 194.7 220.311 194.085C220.143 193.639 220.111 193.153 220.218 192.688C220.325 192.224 220.567 191.801 220.913 191.473C221.16 191.242 221.427 190.995 221.787 190.723C225.958 195.592 230.922 198.712 237.119 199.082V166.05C228.926 165.603 221.787 160.272 218.341 153.305ZM269.686 169.613C269.537 169.615 269.387 169.625 269.239 169.644C268.681 169.255 268.069 168.951 267.423 168.739C266.154 168.341 264.834 168.128 263.504 168.107C263.361 164.68 262.713 161.293 261.581 158.056C262.412 157.583 263.195 157.033 263.921 156.41C264.65 155.743 265.25 154.947 265.69 154.061C265.896 153.676 266.213 153.363 266.6 153.161C267.228 152.809 267.738 152.281 268.07 151.642C268.401 151.003 268.538 150.281 268.464 149.566C268.391 148.85 268.109 148.171 267.655 147.613C267.2 147.055 266.593 146.642 265.907 146.425C265.221 146.207 264.486 146.195 263.793 146.389C263.1 146.584 262.479 146.977 262.006 147.519C261.533 148.062 261.229 148.73 261.132 149.443C261.034 150.156 261.147 150.882 261.457 151.531C261.231 152.034 260.889 152.476 260.459 152.822C260.171 153.06 259.868 153.282 259.554 153.485C256.108 160.446 248.974 165.629 240.792 166.076V199.139C246.963 198.769 251.958 195.633 256.124 190.779C256.448 191.036 256.72 191.268 256.952 191.484C257.312 191.818 257.566 192.252 257.682 192.73C257.797 193.209 257.769 193.71 257.6 194.173C257.375 194.786 257.317 195.449 257.432 196.092C257.547 196.736 257.831 197.337 258.254 197.835C258.678 198.333 259.227 198.709 259.844 198.926C260.461 199.143 261.124 199.191 261.766 199.068C262.408 198.944 263.006 198.652 263.498 198.221C263.991 197.791 264.36 197.238 264.568 196.618C264.776 195.998 264.816 195.334 264.683 194.694C264.55 194.054 264.25 193.461 263.813 192.975C263.68 192.829 263.536 192.695 263.381 192.574C263.211 192.44 263.088 192.363 263.088 192.363C262.522 190.306 261.185 188.471 258.973 186.78C261.427 182.587 262.929 177.906 263.37 173.068C263.675 173.072 263.979 173.092 264.281 173.13C264.719 173.186 265.133 173.359 265.482 173.63C265.83 173.902 266.099 174.261 266.261 174.672C266.568 175.454 267.133 176.108 267.863 176.526C268.592 176.944 269.442 177.101 270.273 176.97C271.103 176.839 271.864 176.429 272.43 175.808C272.996 175.186 273.332 174.39 273.384 173.551C273.41 173.048 273.334 172.544 273.16 172.07C272.986 171.597 272.719 171.163 272.374 170.796C272.028 170.428 271.612 170.134 271.151 169.931C270.689 169.727 270.191 169.619 269.686 169.613Z" fill="#99338A"/>
<path d="M350.255 383.132C349.956 382.659 349.579 382.24 349.139 381.893C346.891 379.77 345.847 376.654 345.292 373.6C344.736 370.546 344.577 367.431 343.687 364.444C343.203 362.912 342.598 361.422 341.877 359.986C341.362 358.886 340.714 356.732 339.773 355.961C339.588 355.801 339.365 355.693 339.125 355.647C338.68 354.703 338.047 353.859 337.263 353.169C335.792 351.838 333.997 350.779 333.015 349.056C332.745 348.459 332.412 347.892 332.022 347.365C331.359 346.635 330.309 346.337 329.697 345.565C328.9 344.568 329.08 343.139 329.183 341.869C329.286 340.599 329.183 339.077 328.082 338.409C327.424 338.003 326.575 338.044 325.891 337.684C324.863 337.17 324.456 335.874 324.477 334.717C324.498 333.561 324.858 332.435 324.95 331.278C325.238 327.597 322.811 323.936 323.747 320.368C324.102 319.016 324.914 317.844 325.516 316.584C325.726 316.165 325.898 315.728 326.03 315.279C327.635 315.915 329.321 316.321 331.04 316.487C328.206 310.132 328.926 302.75 327.604 295.922L327.774 295.691C329.109 293.93 329.867 291.801 329.944 289.593C329.944 287.053 328.756 284.678 328.221 282.19C327.764 280.077 327.784 277.866 327.193 275.789C326.782 274.498 326.238 273.254 325.567 272.077C324.926 270.888 324.252 269.717 323.546 268.566C322.888 266.386 322.228 264.206 321.566 262.026C320.64 258.967 319.689 255.857 317.889 253.214C317.23 252.248 317.03 250.284 316.016 249.698C315.194 249.272 314.26 249.109 313.342 249.23C311.912 248.428 310.657 247.271 310.477 245.687C310.459 245.341 310.494 244.995 310.58 244.659H310.755C313.018 244.454 314.165 242.459 315.343 240.711C317.246 237.883 316.52 234.058 315.343 230.84C315.051 229.824 314.522 228.892 313.8 228.12C312.149 226.578 309.536 226.917 307.407 226.171C306.692 225.925 306.023 225.549 305.293 225.375C303.878 225.046 302.397 225.508 301.101 226.161C299.805 226.814 298.596 227.657 297.238 228.171C295.881 228.686 294.204 229.092 293.87 230.485C293.776 230.954 293.815 231.44 293.983 231.888C294.295 232.782 294.844 233.575 295.572 234.181C294.994 235.373 294.681 236.676 294.655 238C294.63 239.324 294.892 240.638 295.423 241.851C295.955 243.064 296.743 244.147 297.734 245.026C298.725 245.905 299.895 246.559 301.163 246.942C301.554 247.569 301.919 248.207 302.253 248.86C302.85 250.011 303.354 251.368 303.148 252.602C302.776 252.998 302.432 253.418 302.119 253.862C300.643 255.918 299.805 258.33 299.033 260.736C297.997 263.808 297.167 266.946 296.549 270.129C295.294 272.797 293.762 275.347 292.851 278.149C291.221 278.151 289.598 277.933 288.027 277.501L283.686 276.519C282.174 276.175 280.6 275.805 279.417 274.807C278.79 274.293 278.301 273.609 277.663 273.1C277.025 272.591 275.745 271.995 275.045 272.417C274.917 272.494 274.798 272.586 274.69 272.689C274.053 271.399 273.446 270.118 272.705 268.869C271.64 267.121 270.056 265.522 268.05 265.188C266.825 264.991 265.571 265.283 264.558 266C263.386 266.833 262.65 268.571 263.53 269.743C263.749 270.004 263.988 270.248 264.244 270.473C264.84 271.159 265.372 271.897 265.834 272.679C267.492 275.005 269.972 276.615 272.772 277.182L272.592 277.696C272.227 278.766 271.45 280.056 271.646 281.167L290.953 287.773C292.192 288.276 293.506 288.566 294.842 288.632C295.362 288.627 295.881 288.558 296.385 288.426V289.413V289.454C296.436 296.236 295.356 302.971 295.155 309.747C295.119 310.986 295.155 312.317 295.937 313.284C296.811 314.343 298.365 314.554 299.717 314.312C300.043 314.257 300.362 314.185 300.674 314.096C301.132 315.802 301.462 317.539 301.662 319.294L302.937 328.476C303.101 329.416 303.168 330.37 303.138 331.324C302.989 333.478 301.852 335.406 301.029 337.396C300.206 339.386 299.717 341.766 300.798 343.627C301.137 344.203 301.605 344.691 301.908 345.288C302.294 346.211 302.47 347.208 302.423 348.208C302.502 350.977 302.577 353.75 302.649 356.526C302.425 356.49 302.194 356.535 302.001 356.655C300.931 357.488 301.05 361.452 300.972 362.68C300.89 364.737 300.972 366.835 300.859 368.912C300.725 371.711 300.275 374.486 299.517 377.184C299.331 378.061 298.926 378.876 298.339 379.554C297.738 380.077 297.02 380.449 296.246 380.639C293.683 381.441 291.004 381.806 288.32 381.718C287.235 381.682 286.103 381.579 285.095 381.991C284.087 382.402 283.274 383.533 283.64 384.561C283.953 385.425 284.905 385.836 285.764 386.16C287.726 386.851 289.62 387.722 291.421 388.762C292.115 389.234 292.846 389.648 293.607 390.001C294.337 390.263 295.092 390.449 295.86 390.556L304.979 392.129C306.846 392.448 309.094 392.643 310.282 391.101C310.925 390.268 311.017 389.137 310.986 388.078C310.935 386.021 310.523 383.929 310.791 381.872C310.994 380.657 311.314 379.464 311.748 378.31C312.656 375.612 313.568 372.917 314.484 370.223C315.399 367.518 316.325 364.788 316.68 361.95C316.808 360.922 316.798 359.75 316.011 359.107C315.812 358.944 315.581 358.825 315.332 358.758C315.301 356.28 314.977 353.796 315.116 351.318C315.152 350.701 315.214 350.084 315.265 349.462C315.742 349.915 316.168 350.419 316.536 350.964C317.415 352.341 317.739 354.161 319.082 355.077C320.224 355.858 321.916 355.817 322.718 356.948C322.976 357.382 323.17 357.852 323.294 358.341C323.76 359.553 324.459 360.663 325.351 361.606C325.658 362.734 326.084 363.827 326.622 364.865C327.38 366.466 328.134 368.062 328.885 369.652C329.657 371.368 330.515 373.045 331.456 374.675C332.175 375.701 332.755 376.818 333.179 377.996C333.905 380.536 332.722 383.322 330.85 385.194C328.977 387.065 326.509 388.14 324.076 389.142C323.82 389.229 323.585 389.369 323.387 389.553C323.176 389.803 323.064 390.121 323.073 390.448C323.073 391.636 324.05 392.654 325.171 393.019C326.318 393.326 327.519 393.37 328.684 393.147C335.257 392.35 341.81 390.746 347.622 387.553C348.491 387.142 349.261 386.547 349.88 385.811C350.178 385.44 350.371 384.995 350.437 384.523C350.503 384.052 350.44 383.571 350.255 383.132Z" fill="url(#paint0_linear_1_6952)"/>
<path d="M322.477 267.841C323.574 269.524 324.602 271.248 325.563 273.013C326.235 274.18 326.782 275.416 327.193 276.699C327.79 278.755 327.774 280.951 328.222 283.048C328.736 285.516 329.939 287.871 329.939 290.4C329.861 292.592 329.102 294.705 327.769 296.446C326.439 298.173 324.917 299.742 323.233 301.125C319.349 291.067 317.179 280.43 316.814 269.656C316.762 268.165 316.752 266.627 317.297 265.234C317.632 264.36 319.236 261.964 320.27 262.905C320.646 263.25 320.743 264.802 320.975 265.322C321.408 266.2 321.91 267.042 322.477 267.841Z" fill="#2F2E41"/>
<path opacity="0.1" d="M322.477 267.841C323.574 269.524 324.602 271.248 325.563 273.013C326.235 274.18 326.782 275.416 327.193 276.699C327.79 278.755 327.774 280.951 328.222 283.048C328.736 285.516 329.939 287.871 329.939 290.4C329.861 292.592 329.102 294.705 327.769 296.446C326.439 298.173 324.917 299.742 323.233 301.125C319.349 291.067 317.179 280.43 316.814 269.656C316.762 268.165 316.752 266.627 317.297 265.234C317.632 264.36 319.236 261.964 320.27 262.905C320.646 263.25 320.743 264.802 320.975 265.322C321.408 266.2 321.91 267.042 322.477 267.841Z" fill="black"/>
<path d="M186.88 197.699C182.812 201.761 182.323 203.55 179.88 204.357C177.437 205.164 168.647 209.714 171.409 214.758L178.836 219.662L179.052 219.806L180.189 223.22L168.956 243.209C168.956 243.209 150.44 234.747 148.624 247.266C146.809 259.784 147.961 263.203 147.472 269.887C146.984 276.57 147.632 278.503 146.001 278.503C144.371 278.503 143.728 274.113 143.728 274.113C143.728 274.113 143.625 273.912 143.445 273.537C141.023 268.504 124.58 231.554 150.918 206.157C150.918 206.157 163.118 205.355 166.055 191.37C168.081 181.705 175.169 182.538 179.88 184.507C181.411 185.107 182.838 185.945 184.108 186.99C185.25 188.072 186.267 189.279 187.137 190.589C188.479 192.707 189.21 195.365 186.88 197.699Z" fill="#D0D2D5"/>
<path opacity="0.1" d="M179.052 219.806L180.189 223.22L168.956 243.209C168.956 243.209 150.44 234.747 148.624 247.266C146.809 259.784 147.961 263.203 147.472 269.887C146.984 276.57 147.632 278.503 146.001 278.503C144.371 278.503 143.728 274.113 143.728 274.113C143.728 274.113 143.625 273.912 143.445 273.537C142.627 267.285 138.482 230.716 153.51 232.659C153.51 232.659 165.705 238.356 167.654 236.083C169.197 234.284 176.048 223.935 178.836 219.688L179.052 219.806Z" fill="black"/>
<path opacity="0.1" d="M187.137 190.558L179.71 198.995C179.71 198.995 171.085 210.532 169.295 210.043C168.759 209.927 168.213 209.863 167.665 209.853C167.067 209.808 166.496 209.594 166.015 209.236C165.535 208.879 165.166 208.393 164.95 207.834C164.735 207.276 164.682 206.668 164.799 206.08C164.915 205.493 165.195 204.951 165.607 204.517C168.549 201.432 173.97 195.576 174.325 194.275C174.68 192.975 178.131 187.273 179.859 184.481C181.39 185.082 182.817 185.92 184.087 186.965C185.236 188.043 186.26 189.249 187.137 190.558Z" fill="black"/>
<path d="M397.27 311.937C396.01 314.456 389.555 323.905 386.731 328.034L385.409 329.977C385.409 329.977 384.895 333.391 376.465 329.16C368.036 324.929 169.974 241.389 169.974 241.389L168.632 237.359L178.404 222.732L395.485 306.569C395.485 306.569 398.9 308.682 397.27 311.937Z" fill="#454B69"/>
<path opacity="0.1" d="M386.731 328.034L385.409 329.977C385.409 329.977 384.895 333.391 376.465 329.16C368.036 324.929 169.974 241.389 169.974 241.389L168.632 237.359L386.731 328.034Z" fill="black"/>
<path d="M267.264 273.465C265.253 273.136 263.02 273.296 261.457 274.601C260.512 275.401 259.914 276.537 259.79 277.768C259.657 279.192 260.485 280.884 261.915 280.992C262.259 280.996 262.603 280.973 262.943 280.925C263.847 280.921 264.748 280.997 265.638 281.151C267.39 281.316 269.156 281.058 270.787 280.4C272.418 279.741 273.868 278.702 275.014 277.367C276.244 275.825 274.624 275.157 273.173 274.848C271.188 274.427 269.249 273.784 267.264 273.465Z" fill="#FBBEBE"/>
<path d="M301.662 319.895L302.937 328.954C303.1 329.889 303.165 330.838 303.133 331.787C302.983 333.92 301.847 335.833 301.029 337.807C300.211 339.781 299.712 342.146 300.798 343.977C301.132 344.547 301.6 345.036 301.903 345.627C302.289 346.541 302.465 347.53 302.418 348.521L302.767 361.374C306.738 361.645 310.722 361.623 314.689 361.308C314.845 361.315 314.998 361.268 315.122 361.174C315.226 361.041 315.279 360.875 315.271 360.706C315.446 357.698 314.921 354.686 315.091 351.678C315.152 350.578 315.307 349.483 315.327 348.378C315.389 343.9 313.177 339.514 313.846 335.088C314.056 333.971 314.331 332.867 314.669 331.782C316.783 324.07 316.335 315.967 315.867 308.004C315.875 307.876 315.839 307.748 315.764 307.644C315.689 307.568 315.592 307.516 315.487 307.495C313.237 306.82 310.857 306.696 308.549 307.135C306.241 307.573 304.073 308.561 302.227 310.014C301.667 310.466 300.252 310.903 299.882 311.443C299.368 312.194 300.041 312.944 300.34 313.741C301.001 315.739 301.444 317.802 301.662 319.895Z" fill="#3F3D56"/>
<path opacity="0.1" d="M301.662 319.895L302.937 328.954C303.1 329.889 303.165 330.838 303.133 331.787C302.983 333.92 301.847 335.833 301.029 337.807C300.211 339.781 299.712 342.146 300.798 343.977C301.132 344.547 301.6 345.036 301.903 345.627C302.289 346.541 302.465 347.53 302.418 348.521L302.767 361.374C306.738 361.645 310.722 361.623 314.689 361.308C314.845 361.315 314.998 361.268 315.122 361.174C315.226 361.041 315.279 360.875 315.271 360.706C315.446 357.698 314.921 354.686 315.091 351.678C315.152 350.578 315.307 349.483 315.327 348.378C315.389 343.9 313.177 339.514 313.846 335.088C314.056 333.971 314.331 332.867 314.669 331.782C316.783 324.07 316.335 315.967 315.867 308.004C315.875 307.876 315.839 307.748 315.764 307.644C315.689 307.568 315.592 307.516 315.487 307.495C313.237 306.82 310.857 306.696 308.549 307.135C306.241 307.573 304.073 308.561 302.227 310.014C301.667 310.466 300.252 310.903 299.882 311.443C299.368 312.194 300.041 312.944 300.34 313.741C301.001 315.739 301.444 317.802 301.662 319.895Z" fill="black"/>
<path d="M325.511 317.165C324.909 318.415 324.102 319.577 323.742 320.918C322.805 324.461 325.228 328.116 324.94 331.746C324.847 332.892 324.493 334.008 324.467 335.154C324.441 336.301 324.863 337.576 325.881 338.105C326.565 338.455 327.424 338.419 328.067 338.82C329.152 339.483 329.276 340.99 329.168 342.254C329.06 343.519 328.88 344.933 329.682 345.92C330.294 346.686 331.343 346.984 332.002 347.709C332.393 348.23 332.726 348.792 332.994 349.385C333.977 351.102 335.772 352.151 337.243 353.498C338.714 354.845 339.958 356.819 339.3 358.686C338.816 360.053 337.459 360.896 336.152 361.539C333.769 362.717 331.253 363.606 328.659 364.187C328.38 364.271 328.085 364.287 327.8 364.233C327.51 364.127 327.252 363.951 327.049 363.719C325.531 362.233 323.963 360.675 323.263 358.675C323.139 358.191 322.945 357.727 322.687 357.298C321.885 356.172 320.193 356.213 319.051 355.436C317.714 354.526 317.39 352.722 316.515 351.359C315.641 349.997 314.36 349.185 313.429 347.987C311.856 345.992 311.47 343.329 310.343 341.051C309.865 340.085 309.253 339.18 308.872 338.172C308.488 336.964 308.252 335.715 308.168 334.45C307.443 328.445 305.596 322.399 306.759 316.456C307.016 315.15 307.412 313.885 307.576 312.538C307.859 310.209 307.412 307.824 307.756 305.5C307.765 305.208 307.839 304.922 307.973 304.663C308.108 304.404 308.299 304.179 308.533 304.004C308.811 303.879 309.113 303.818 309.418 303.824C312.467 303.661 315.524 303.73 318.562 304.03C320.105 304.179 321.833 304.492 322.759 305.752C323.546 306.832 323.505 308.276 323.757 309.587C324.071 311.202 324.889 312.081 325.747 313.345C326.606 314.61 326.143 315.86 325.511 317.165Z" fill="#3F3D56"/>
<path d="M313.646 358.943C314.458 358.943 315.358 358.891 315.986 359.405C316.767 360.048 316.778 361.225 316.654 362.228C316.294 365.045 315.374 367.755 314.453 370.454L311.717 378.479C311.284 379.624 310.963 380.809 310.76 382.016C310.493 384.073 310.904 386.129 310.956 388.186C310.956 389.214 310.889 390.355 310.246 391.183C309.083 392.679 306.815 392.504 304.948 392.211L295.84 390.669C295.071 390.567 294.316 390.382 293.587 390.119C292.827 389.768 292.096 389.357 291.401 388.89C289.598 387.861 287.705 387 285.743 386.32C284.89 386.001 283.933 385.595 283.624 384.736C283.259 383.708 284.072 382.577 285.08 382.166C286.088 381.754 287.214 381.857 288.305 381.888C290.986 381.973 293.663 381.612 296.225 380.819C296.997 380.629 297.713 380.259 298.313 379.739C298.924 379.054 299.339 378.217 299.517 377.317C300.293 374.638 300.756 371.877 300.895 369.091C301.003 367.035 300.931 364.979 301.014 362.922C301.065 361.704 300.947 357.781 302.017 356.943C302.834 356.316 306.198 358.048 307.304 358.3C309.383 358.776 311.513 358.992 313.646 358.943Z" fill="#2F2E41"/>
<path d="M343.651 364.66C344.541 367.606 344.68 370.721 345.256 373.749C345.832 376.777 346.85 379.867 349.098 381.975C349.535 382.322 349.912 382.739 350.214 383.209C350.404 383.649 350.468 384.133 350.4 384.608C350.332 385.082 350.134 385.529 349.828 385.898C349.207 386.629 348.438 387.22 347.57 387.631C341.764 390.797 335.227 392.396 328.638 393.188C327.474 393.406 326.276 393.362 325.13 393.06C324.009 392.679 323.017 391.671 323.037 390.489C323.026 390.165 323.136 389.848 323.346 389.6C323.546 389.417 323.782 389.278 324.04 389.193C326.468 388.196 328.931 387.111 330.809 385.271C332.686 383.43 333.864 380.644 333.138 378.145C332.709 376.975 332.126 375.867 331.405 374.85C330.465 373.233 329.607 371.57 328.834 369.868L326.571 365.122C325.907 363.734 325.238 362.305 325.125 360.773C327.968 360.9 330.807 360.445 333.468 359.436C334.71 358.93 335.867 358.236 336.898 357.38C337.773 356.65 338.57 355.287 339.748 356.238C340.694 356.999 341.291 359.143 341.846 360.228C342.568 361.654 343.171 363.136 343.651 364.66Z" fill="#2F2E41"/>
<path d="M310.488 246.829C310.714 248.803 312.627 250.104 314.453 250.885L302.896 254.571C303.642 253.142 303.04 251.394 302.3 249.944C301.697 248.796 301.009 247.695 300.242 246.649C300.129 246.489 300.001 246.289 300.083 246.104C300.156 245.983 300.272 245.893 300.407 245.852C302.783 244.793 305.231 243.698 307.829 243.312C308.58 243.204 309.999 242.906 310.56 243.667C311.12 244.428 310.38 245.919 310.488 246.829Z" fill="#FBBEBE"/>
<path opacity="0.1" d="M310.488 246.829C310.714 248.803 312.627 250.104 314.453 250.885L302.896 254.571C303.642 253.142 303.04 251.394 302.3 249.944C301.697 248.796 301.009 247.695 300.242 246.649C300.129 246.489 300.001 246.289 300.083 246.104C300.156 245.983 300.272 245.893 300.407 245.852C302.783 244.793 305.231 243.698 307.829 243.312C308.58 243.204 309.999 242.906 310.56 243.667C311.12 244.428 310.38 245.919 310.488 246.829Z" fill="black"/>
<path d="M303.77 248.428C308.775 248.428 312.833 244.372 312.833 239.369C312.833 234.366 308.775 230.31 303.77 230.31C298.765 230.31 294.708 234.366 294.708 239.369C294.708 244.372 298.765 248.428 303.77 248.428Z" fill="#FBBEBE"/>
<path d="M295.917 313.916C296.796 314.97 298.344 315.175 299.697 314.944C302.86 314.43 305.447 312.101 308.544 311.263C312.339 310.235 316.356 311.556 319.941 313.176C323.526 314.795 327.09 316.774 331.009 317.052C327.466 309.155 329.492 299.654 326.103 291.691C325.275 289.742 324.117 287.865 323.932 285.758C323.701 283.141 325.007 280.616 325.208 278.015C325.393 275.696 324.693 273.388 324.025 271.177C323.198 268.463 322.372 265.748 321.546 263.034C320.62 259.995 319.668 256.905 317.873 254.293C317.21 253.332 317.009 251.384 316.001 250.803C313.8 249.533 310.462 251.132 308.076 251.219C305.689 251.306 303.513 253.003 302.12 254.921C300.644 256.946 299.805 259.358 299.034 261.743C297.805 265.295 296.888 268.947 296.292 272.658C296.215 273.213 296.148 273.768 296.097 274.329C295.583 279.609 296.333 284.92 296.375 290.225V290.261C296.426 296.991 295.346 303.68 295.145 310.404C295.125 311.633 295.156 312.975 295.917 313.916Z" fill="#2F2E41"/>
<path opacity="0.1" d="M296.39 290.231C298.164 289.783 299.769 288.637 301.147 287.382C302.341 286.314 303.401 285.106 304.305 283.783C305.443 282.006 306.357 280.094 307.026 278.092C308.93 272.738 310.14 267.163 310.626 261.502C310.76 259.959 310.801 258.304 309.881 257.08C309.364 256.417 308.638 255.949 307.82 255.751C307.003 255.553 306.143 255.637 305.38 255.99C304.166 256.581 303.38 257.779 302.649 258.926C301.204 261.198 299.748 263.501 298.817 266.031C298.406 267.152 298.103 268.303 297.701 269.429C297.293 270.54 296.823 271.626 296.292 272.684C296.215 273.239 296.148 273.794 296.097 274.355C295.618 279.635 296.349 284.925 296.39 290.231Z" fill="black"/>
<path d="M309.855 256.088C310.776 257.311 310.734 258.982 310.606 260.504C310.121 266.165 308.911 271.741 307.006 277.095C306.342 279.113 305.428 281.041 304.285 282.832C303.379 284.153 302.319 285.362 301.127 286.431C299.378 288.025 297.249 289.449 294.878 289.47C293.543 289.407 292.229 289.12 290.989 288.621L271.677 282.051C271.481 280.951 272.258 279.665 272.623 278.606L273.652 275.557C273.945 274.714 274.284 273.804 275.051 273.347C275.817 272.889 277.031 273.516 277.668 274.025C278.306 274.534 278.79 275.203 279.417 275.722C280.605 276.709 282.174 277.079 283.686 277.419L288.022 278.39C289.594 278.821 291.216 279.037 292.846 279.033C294.055 275.342 296.354 272.092 297.655 268.432C298.056 267.311 298.36 266.154 298.776 265.033C299.702 262.504 301.163 260.206 302.608 257.928C303.333 256.787 304.12 255.589 305.339 254.993C306.104 254.635 306.968 254.549 307.789 254.748C308.61 254.947 309.338 255.42 309.855 256.088Z" fill="#2F2E41"/>
<path d="M306.661 241.415C306.593 240.819 306.407 240.243 306.116 239.718C305.964 239.456 305.733 239.248 305.456 239.126C305.178 239.004 304.869 238.974 304.573 239.04C303.668 239.322 303.364 240.721 302.418 240.767C301.78 240.798 301.322 240.15 301.122 239.544C300.921 238.937 300.813 238.243 300.335 237.816C300.002 237.567 299.62 237.392 299.214 237.302C297.018 236.608 294.749 235.328 294.019 233.143C293.847 232.699 293.806 232.216 293.901 231.749C294.235 230.367 295.958 229.95 297.27 229.451C298.581 228.953 299.841 228.099 301.127 227.451C302.413 226.804 303.904 226.346 305.319 226.675C306.036 226.901 306.742 227.163 307.433 227.462C309.562 228.202 312.17 227.858 313.821 229.395C314.542 230.157 315.071 231.081 315.364 232.089C316.516 235.287 317.246 239.081 315.338 241.888C314.16 243.621 313.018 245.6 310.755 245.811C308.122 246.032 307.078 243.646 306.661 241.415Z" fill="#2F2E41"/>
<g opacity="0.1">
<path d="M302.639 238.454C302.438 237.847 302.33 237.153 301.857 236.726C301.524 236.477 301.142 236.302 300.736 236.212C298.535 235.518 296.272 234.238 295.536 232.053C295.369 231.608 295.329 231.125 295.423 230.66C295.474 230.44 295.566 230.232 295.696 230.048C294.857 230.413 294.127 230.896 293.921 231.75C293.827 232.216 293.868 232.699 294.04 233.143C294.77 235.328 297.038 236.608 299.234 237.302C299.64 237.392 300.022 237.567 300.355 237.816C300.834 238.243 300.937 238.932 301.142 239.544C301.348 240.155 301.801 240.798 302.438 240.767C303.076 240.736 303.385 240.155 303.791 239.667C303.231 239.595 302.824 239.019 302.639 238.454Z" fill="black"/>
<path d="M312.267 244.705C309.623 244.947 308.579 242.541 308.152 240.325C308.096 239.731 307.921 239.154 307.638 238.628C307.486 238.366 307.255 238.16 306.977 238.038C306.7 237.916 306.391 237.885 306.095 237.95C305.626 238.177 305.232 238.534 304.958 238.978C305.195 239.001 305.422 239.077 305.624 239.202C305.825 239.327 305.995 239.497 306.121 239.698C306.412 240.222 306.597 240.798 306.666 241.394C307.083 243.61 308.127 246.021 310.781 245.775C311.83 245.659 312.798 245.157 313.496 244.366C313.108 244.547 312.693 244.661 312.267 244.705Z" fill="black"/>
</g>
<path d="M418.203 340.342C427.375 340.342 434.81 338.912 434.81 337.149C434.81 335.386 427.375 333.956 418.203 333.956C409.03 333.956 401.595 335.386 401.595 337.149C401.595 338.912 409.03 340.342 418.203 340.342Z" fill="#99338A"/>
<path d="M417.925 338.321C418.993 338.321 419.859 337.189 419.859 335.792C419.859 334.395 418.993 333.262 417.925 333.262C416.857 333.262 415.991 334.395 415.991 335.792C415.991 337.189 416.857 338.321 417.925 338.321Z" fill="#3F3D56"/>
<path d="M417.925 335.226C418.993 335.226 419.859 334.094 419.859 332.697C419.859 331.3 418.993 330.167 417.925 330.167C416.857 330.167 415.991 331.3 415.991 332.697C415.991 334.094 416.857 335.226 417.925 335.226Z" fill="#3F3D56"/>
<path d="M417.925 332.136C418.993 332.136 419.859 331.004 419.859 329.607C419.859 328.21 418.993 327.077 417.925 327.077C416.857 327.077 415.991 328.21 415.991 329.607C415.991 331.004 416.857 332.136 417.925 332.136Z" fill="#3F3D56"/>
<path d="M417.925 329.041C418.993 329.041 419.859 327.909 419.859 326.512C419.859 325.115 418.993 323.982 417.925 323.982C416.857 323.982 415.991 325.115 415.991 326.512C415.991 327.909 416.857 329.041 417.925 329.041Z" fill="#3F3D56"/>
<path d="M417.925 325.946C418.993 325.946 419.859 324.814 419.859 323.417C419.859 322.02 418.993 320.887 417.925 320.887C416.857 320.887 415.991 322.02 415.991 323.417C415.991 324.814 416.857 325.946 417.925 325.946Z" fill="#3F3D56"/>
<path d="M417.925 322.857C418.993 322.857 419.859 321.724 419.859 320.327C419.859 318.93 418.993 317.798 417.925 317.798C416.857 317.798 415.991 318.93 415.991 320.327C415.991 321.724 416.857 322.857 417.925 322.857Z" fill="#3F3D56"/>
<path d="M417.925 319.762C418.993 319.762 419.859 318.629 419.859 317.232C419.859 315.835 418.993 314.703 417.925 314.703C416.857 314.703 415.991 315.835 415.991 317.232C415.991 318.629 416.857 319.762 417.925 319.762Z" fill="#3F3D56"/>
<path d="M425.161 296.086C425.425 295.75 425.666 295.396 425.882 295.027L420.8 294.194L426.298 294.23C426.823 293.083 427.109 291.841 427.139 290.58C427.169 289.319 426.943 288.065 426.473 286.894L419.098 290.719L425.897 285.722C425.259 284.624 424.402 283.669 423.379 282.916C422.356 282.164 421.189 281.63 419.95 281.348C418.712 281.065 417.429 281.041 416.181 281.275C414.932 281.51 413.746 281.999 412.695 282.712C411.644 283.424 410.751 284.346 410.071 285.418C409.391 286.491 408.94 287.692 408.744 288.946C408.549 290.201 408.614 291.482 408.935 292.71C409.256 293.939 409.827 295.088 410.611 296.086C410.198 296.608 409.843 297.174 409.552 297.773L416.15 301.202L409.115 298.842C408.623 300.299 408.503 301.855 408.764 303.37C409.025 304.886 409.66 306.312 410.611 307.52C409.538 308.886 408.871 310.525 408.686 312.251C408.501 313.978 408.806 315.721 409.565 317.283C410.325 318.844 411.508 320.161 412.98 321.082C414.453 322.003 416.155 322.491 417.891 322.491C419.628 322.491 421.33 322.003 422.803 321.082C424.275 320.161 425.458 318.844 426.218 317.283C426.977 315.721 427.282 313.978 427.097 312.251C426.912 310.525 426.245 308.886 425.172 307.52C426.457 305.889 427.156 303.872 427.156 301.796C427.156 299.719 426.457 297.702 425.172 296.071L425.161 296.086Z" fill="#99338A"/>
<path opacity="0.1" d="M408.615 301.793C408.615 303.873 409.318 305.891 410.611 307.521C409.538 308.886 408.871 310.525 408.686 312.252C408.501 313.978 408.806 315.721 409.565 317.283C410.324 318.844 411.508 320.161 412.98 321.082C414.453 322.003 416.154 322.491 417.891 322.491C419.628 322.491 421.33 322.003 422.802 321.082C424.275 320.161 425.458 318.844 426.218 317.283C426.977 315.721 427.282 313.978 427.097 312.252C426.912 310.525 426.245 308.886 425.172 307.521C426.401 305.942 408.615 300.755 408.615 301.793Z" fill="black"/>
<path d="M76.3363 404C89.5419 404 100.247 401.942 100.247 399.404C100.247 396.865 89.5419 394.808 76.3363 394.808C63.1306 394.808 52.4253 396.865 52.4253 399.404C52.4253 401.942 63.1306 404 76.3363 404Z" fill="#99338A"/>
<path d="M75.9348 401.095C77.4716 401.095 78.7173 399.463 78.7173 397.45C78.7173 395.437 77.4716 393.805 75.9348 393.805C74.3981 393.805 73.1523 395.437 73.1523 397.45C73.1523 399.463 74.3981 401.095 75.9348 401.095Z" fill="#3F3D56"/>
<path d="M75.9348 396.643C77.4716 396.643 78.7173 395.011 78.7173 392.998C78.7173 390.985 77.4716 389.353 75.9348 389.353C74.3981 389.353 73.1523 390.985 73.1523 392.998C73.1523 395.011 74.3981 396.643 75.9348 396.643Z" fill="#3F3D56"/>
<path d="M75.9348 392.191C77.4716 392.191 78.7173 390.559 78.7173 388.546C78.7173 386.533 77.4716 384.901 75.9348 384.901C74.3981 384.901 73.1523 386.533 73.1523 388.546C73.1523 390.559 74.3981 392.191 75.9348 392.191Z" fill="#3F3D56"/>
<path d="M75.9348 387.738C77.4716 387.738 78.7173 386.106 78.7173 384.093C78.7173 382.08 77.4716 380.448 75.9348 380.448C74.3981 380.448 73.1523 382.08 73.1523 384.093C73.1523 386.106 74.3981 387.738 75.9348 387.738Z" fill="#3F3D56"/>
<path d="M75.9348 383.286C77.4716 383.286 78.7173 381.654 78.7173 379.641C78.7173 377.628 77.4716 375.996 75.9348 375.996C74.3981 375.996 73.1523 377.628 73.1523 379.641C73.1523 381.654 74.3981 383.286 75.9348 383.286Z" fill="#3F3D56"/>
<path d="M75.9348 378.829C77.4716 378.829 78.7173 377.197 78.7173 375.184C78.7173 373.171 77.4716 371.539 75.9348 371.539C74.3981 371.539 73.1523 373.171 73.1523 375.184C73.1523 377.197 74.3981 378.829 75.9348 378.829Z" fill="#3F3D56"/>
<path d="M75.9348 374.376C77.4716 374.376 78.7173 372.744 78.7173 370.731C78.7173 368.718 77.4716 367.086 75.9348 367.086C74.3981 367.086 73.1523 368.718 73.1523 370.731C73.1523 372.744 74.3981 374.376 75.9348 374.376Z" fill="#3F3D56"/>
<path d="M86.3551 340.265C86.7317 339.774 87.0754 339.259 87.3838 338.722L80.0701 337.519L87.9804 337.581C88.7386 335.93 89.152 334.141 89.1953 332.324C89.2386 330.508 88.911 328.702 88.2324 327.016L77.6271 332.537L87.3992 325.34C86.4841 323.753 85.2516 322.371 83.7786 321.281C82.3056 320.191 80.6237 319.417 78.8379 319.006C77.0521 318.595 75.2007 318.556 73.3991 318.892C71.5976 319.227 69.8847 319.931 68.3672 320.958C66.8498 321.985 65.5604 323.314 64.5794 324.861C63.5985 326.408 62.9472 328.141 62.666 329.951C62.3848 331.761 62.4799 333.61 62.9452 335.382C63.4106 337.154 64.2362 338.811 65.3707 340.249C64.77 341 64.2527 341.814 63.8277 342.676L73.3273 347.611L63.2003 344.213C62.4905 346.32 62.3191 348.571 62.7018 350.761C63.0845 352.951 64.009 355.011 65.3913 356.752C63.8438 358.719 62.8812 361.081 62.6133 363.568C62.3455 366.056 62.7834 368.568 63.8768 370.819C64.9702 373.069 66.6752 374.967 68.7966 376.294C70.918 377.622 73.3704 378.326 75.8732 378.326C78.3761 378.326 80.8284 377.622 82.9498 376.294C85.0713 374.967 86.7762 373.069 87.8696 370.819C88.9631 368.568 89.4009 366.056 89.1331 363.568C88.8653 361.081 87.9026 358.719 86.3551 356.752C88.2047 354.403 89.2103 351.501 89.2103 348.511C89.2103 345.522 88.2047 342.619 86.3551 340.27V340.265Z" fill="#99338A"/>
<path opacity="0.1" d="M62.5366 348.527C62.5371 351.511 63.5426 354.409 65.3911 356.753C63.8437 358.719 62.881 361.081 62.6132 363.568C62.3454 366.056 62.7832 368.568 63.8767 370.819C64.9701 373.069 66.675 374.967 68.7965 376.294C70.9179 377.622 73.3702 378.326 75.8731 378.326C78.3759 378.326 80.8283 377.622 82.9497 376.294C85.0711 374.967 86.776 373.069 87.8695 370.819C88.9629 368.568 89.4008 366.056 89.1329 363.568C88.8651 361.081 87.9025 358.719 86.355 356.753C88.1294 354.48 62.5366 347.01 62.5366 348.527Z" fill="black"/>
</g>
<defs>
<linearGradient id="paint0_linear_1_6952" x1="309.563" y1="393.994" x2="302.76" y2="225.299" gradientUnits="userSpaceOnUse">
<stop stop-color="#808080" stop-opacity="0.25"/>
<stop offset="0.54" stop-color="#808080" stop-opacity="0.12"/>
<stop offset="1" stop-color="#808080" stop-opacity="0.1"/>
</linearGradient>
<clipPath id="clip0_1_6952">
<rect width="526" height="404" fill="white"/>
</clipPath>
</defs>
</svg>
